<svg width="2311" height="27" viewBox="0 0 2311 27" fill="none" xmlns="http://www.w3.org/2000/svg">
<path d="M16.0559 20.68C16.0559 20.8707 15.9753 21.8093 15.8139 23.496C15.6526 25.1827 15.5646 26.048 15.5499 26.092H14.1419C14.1126 25.5493 14.0466 24.7573 13.9439 23.716C13.8559 22.6747 13.7899 22.1027 13.7459 22H3.69192C3.63326 22.0587 3.48659 22.616 3.25192 23.672C3.03192 24.728 2.86326 25.542 2.74592 26.114H1.31592C1.33059 25.5273 1.35992 24.6473 1.40392 23.474C1.46259 22.3153 1.51392 21.384 1.55792 20.68H3.16392C3.51592 20.24 3.89726 19.5213 4.30792 18.524C4.73326 17.512 5.11459 16.148 5.45192 14.432C5.78926 12.7013 5.95792 10.6773 5.95792 8.36V7.018L3.69192 6.754V5.654H16.1439V6.754L14.0759 7.018V20.68H16.0559ZM7.32192 8.492C7.33659 10.5747 7.21192 12.4667 6.94792 14.168C6.68392 15.8547 6.36859 17.248 6.00192 18.348C5.64992 19.448 5.32726 20.2253 5.03392 20.68H11.7439L11.7659 6.93H7.32192V8.492ZM19.9142 7.018L18.1102 6.754V5.654H29.3082L29.6162 9.064H28.3622L27.7242 6.93L22.2682 6.798V13.002L25.9422 12.936L26.2502 11.11H27.4602V16.17H26.2502L25.9422 14.278L22.2682 14.212V20.768L28.4722 20.548L29.6382 17.776L30.9362 18.172L30.2982 22H18.0882V20.922L19.9142 20.702V7.018ZM37.9183 8.998C37.9183 11.638 37.7643 13.97 37.4563 15.994C37.1629 18.0033 36.7156 19.5287 36.1143 20.57C35.8063 21.098 35.4543 21.4867 35.0583 21.736C34.6623 21.9853 34.1929 22.11 33.6503 22.11C32.9463 22.11 32.4256 22.0733 32.0883 22L31.9343 20.218C32.2716 20.262 32.8216 20.284 33.5843 20.284C33.8629 20.284 34.1049 20.2253 34.3102 20.108C34.5156 19.976 34.7063 19.756 34.8823 19.448C35.9969 17.7173 36.5543 14.1533 36.5543 8.756V7.018L34.0243 6.754V5.654H46.7403V6.754L44.6943 7.018V20.702L46.8723 20.922V22H40.0963V20.922L42.3623 20.68L42.3843 7.018H37.9183V8.998ZM55.2835 22.242C53.7875 22.242 52.5188 21.8973 51.4775 21.208C50.4508 20.5187 49.6735 19.5507 49.1455 18.304C48.6175 17.0427 48.3535 15.5833 48.3535 13.926C48.3535 12.2393 48.6688 10.758 49.2995 9.482C49.9448 8.206 50.8248 7.22333 51.9395 6.534C53.0541 5.83 54.3081 5.478 55.7015 5.478C57.9895 5.478 59.7348 6.204 60.9375 7.656C62.1548 9.09333 62.7635 11.088 62.7635 13.64C62.7635 15.356 62.4335 16.8667 61.7735 18.172C61.1281 19.4627 60.2335 20.4673 59.0895 21.186C57.9601 21.89 56.6915 22.242 55.2835 22.242ZM55.5695 6.622C54.1468 6.622 53.0248 7.24533 52.2035 8.492C51.3821 9.724 50.9715 11.5353 50.9715 13.926C50.9715 16.126 51.3675 17.8713 52.1595 19.162C52.9661 20.438 54.0881 21.076 55.5255 21.076C56.9335 21.076 58.0481 20.438 58.8695 19.162C59.7055 17.886 60.1235 16.0527 60.1235 13.662C60.1235 11.4473 59.7275 9.724 58.9355 8.492C58.1435 7.24533 57.0215 6.622 55.5695 6.622ZM85.1811 5.654V6.754L83.3111 7.04V20.68L85.3571 20.922V22H79.1531V20.922L80.9791 20.68V6.952H73.9391V20.702L75.9851 20.922V22H69.8251V20.922L71.6071 20.702V7.018L69.7371 6.754V5.654H85.1811ZM93.8909 22.242C92.3949 22.242 91.1262 21.8973 90.0849 21.208C89.0582 20.5187 88.2809 19.5507 87.7529 18.304C87.2249 17.0427 86.9609 15.5833 86.9609 13.926C86.9609 12.2393 87.2762 10.758 87.9069 9.482C88.5522 8.206 89.4322 7.22333 90.5469 6.534C91.6616 5.83 92.9156 5.478 94.3089 5.478C96.5969 5.478 98.3422 6.204 99.5449 7.656C100.762 9.09333 101.371 11.088 101.371 13.64C101.371 15.356 101.041 16.8667 100.381 18.172C99.7356 19.4627 98.8409 20.4673 97.6969 21.186C96.5676 21.89 95.2989 22.242 93.8909 22.242ZM94.1769 6.622C92.7542 6.622 91.6322 7.24533 90.8109 8.492C89.9896 9.724 89.5789 11.5353 89.5789 13.926C89.5789 16.126 89.9749 17.8713 90.7669 19.162C91.5736 20.438 92.6956 21.076 94.1329 21.076C95.5409 21.076 96.6556 20.438 97.4769 19.162C98.3129 17.886 98.7309 16.0527 98.7309 13.662C98.7309 11.4473 98.3349 9.724 97.5429 8.492C96.7509 7.24533 95.6289 6.622 94.1769 6.622ZM105.698 7.018L103.3 6.754V5.654H109.13L112.232 15.554L112.958 18.348L113.618 15.554L116.698 5.654H122.484V6.754L120.064 7.018L121.824 20.68L123.738 20.922V22H117.402V20.922L119.404 20.702L118.414 10.824L117.952 6.578L117.028 9.746L113.354 21.252H111.924L108.36 10.714L107.062 6.556L106.666 10.824L105.786 20.702L107.964 20.922V22H102.222V20.922L104.092 20.702L105.698 7.018ZM131.553 22.242C130.057 22.242 128.788 21.8973 127.747 21.208C126.72 20.5187 125.943 19.5507 125.415 18.304C124.887 17.0427 124.623 15.5833 124.623 13.926C124.623 12.2393 124.938 10.758 125.569 9.482C126.214 8.206 127.094 7.22333 128.209 6.534C129.324 5.83 130.578 5.478 131.971 5.478C134.259 5.478 136.004 6.204 137.207 7.656C138.424 9.09333 139.033 11.088 139.033 13.64C139.033 15.356 138.703 16.8667 138.043 18.172C137.398 19.4627 136.503 20.4673 135.359 21.186C134.23 21.89 132.961 22.242 131.553 22.242ZM131.839 6.622C130.416 6.622 129.294 7.24533 128.473 8.492C127.652 9.724 127.241 11.5353 127.241 13.926C127.241 16.126 127.637 17.8713 128.429 19.162C129.236 20.438 130.358 21.076 131.795 21.076C133.203 21.076 134.318 20.438 135.139 19.162C135.975 17.886 136.393 16.0527 136.393 13.662C136.393 11.4473 135.997 9.724 135.205 8.492C134.413 7.24533 133.291 6.622 131.839 6.622ZM163.666 20.68C163.475 22.8067 163.277 24.6107 163.072 26.092H161.664C161.635 25.5493 161.583 24.7573 161.51 23.716C161.437 22.6893 161.378 22.1173 161.334 22H140.588V20.922L142.656 20.702V7.018L140.83 6.754V5.654H146.924V6.754L144.966 7.018V20.702H150.752V7.018L149.058 6.754V5.654H154.734V6.754L153.018 7.018V20.702H158.694V7.018L157.044 6.754V5.654H162.83V6.754L161.026 7.018V20.68H163.666ZM171.593 5.654V6.754L169.437 7.018V18.062L171.241 15.356L177.577 7.612V7.018L175.619 6.754V5.654H181.669V6.754L179.909 7.018V20.702L181.779 20.922V22H175.641V20.922L177.577 20.702V9.504L175.949 12.056L169.437 19.91V20.702L171.505 20.922V22H165.301V20.922L167.127 20.702V7.018L165.367 6.754V5.654H171.593ZM196.432 18.612C196.373 18.7293 196.197 19.1473 195.904 19.866C195.611 20.57 195.193 21.142 194.65 21.582C194.107 22.022 193.477 22.242 192.758 22.242C192.377 22.242 191.995 22.2053 191.614 22.132C191.247 22.0733 190.947 21.9927 190.712 21.89V20.328L192.274 20.35C192.949 20.35 193.447 20.218 193.77 19.954C194.093 19.6753 194.371 19.184 194.606 18.48L189.062 7.018L187.874 6.754V5.654H193.814V6.754L191.658 7.018L195.2 14.674L195.86 16.676L196.586 14.652L199.38 7.018L197.51 6.754V5.654H202.218V6.754L201.074 7.018L196.432 18.612ZM208.243 6.82L204.459 6.952L203.689 11.55H202.237L202.611 5.654H216.317L216.581 11.55H215.195L214.469 6.952L210.663 6.82V20.702L213.787 20.922V22H205.383V20.922L208.243 20.702V6.82ZM224.774 22.242C223.278 22.242 222.009 21.8973 220.968 21.208C219.941 20.5187 219.164 19.5507 218.636 18.304C218.108 17.0427 217.844 15.5833 217.844 13.926C217.844 12.2393 218.159 10.758 218.79 9.482C219.435 8.206 220.315 7.22333 221.43 6.534C222.544 5.83 223.798 5.478 225.192 5.478C227.48 5.478 229.225 6.204 230.428 7.656C231.645 9.09333 232.254 11.088 232.254 13.64C232.254 15.356 231.924 16.8667 231.264 18.172C230.618 19.4627 229.724 20.4673 228.58 21.186C227.45 21.89 226.182 22.242 224.774 22.242ZM225.06 6.622C223.637 6.622 222.515 7.24533 221.694 8.492C220.872 9.724 220.462 11.5353 220.462 13.926C220.462 16.126 220.858 17.8713 221.65 19.162C222.456 20.438 223.578 21.076 225.016 21.076C226.424 21.076 227.538 20.438 228.36 19.162C229.196 17.886 229.614 16.0527 229.614 13.662C229.614 11.4473 229.218 9.724 228.426 8.492C227.634 7.24533 226.512 6.622 225.06 6.622ZM249.451 5.654V6.754L247.581 7.04V20.68L249.627 20.922V22H243.423V20.922L245.249 20.68V6.952H238.209V20.702L240.255 20.922V22H234.095V20.922L235.877 20.702V7.018L234.007 6.754V5.654H249.451ZM256.862 5.522H259.282L264.628 20.702L265.992 20.922V22H260.184V20.922L262.01 20.702L260.976 17.446H254.552L253.518 20.702L255.41 20.922V22H250.196V20.922L251.56 20.702L256.862 5.522ZM258.248 9.042L257.698 7.106L257.17 9.086L254.948 16.148H260.558L258.248 9.042ZM274.515 12.936C274.662 11.396 275.08 10.0613 275.769 8.932C276.458 7.80267 277.324 6.94467 278.365 6.358C279.421 5.75667 280.558 5.46333 281.775 5.478C283.212 5.478 284.437 5.81533 285.449 6.49C286.476 7.15 287.253 8.08133 287.781 9.284C288.309 10.472 288.573 11.858 288.573 13.442C288.573 15.2167 288.258 16.7713 287.627 18.106C287.011 19.426 286.16 20.438 285.075 21.142C284.004 21.846 282.802 22.198 281.467 22.198C279.986 22.198 278.724 21.8753 277.683 21.23C276.642 20.57 275.85 19.646 275.307 18.458C274.764 17.2553 274.486 15.8547 274.471 14.256H270.951V20.68L272.843 20.922V22H266.793V20.922L268.597 20.68V7.018L266.837 6.754V5.654H272.755V6.754L270.929 7.018V12.936H274.515ZM281.621 6.666C280.228 6.666 279.113 7.27467 278.277 8.492C277.441 9.70933 277.023 11.5353 277.023 13.97C277.023 16.0967 277.419 17.798 278.211 19.074C279.018 20.35 280.147 20.988 281.599 20.988C282.992 20.988 284.07 20.372 284.833 19.14C285.61 17.8933 285.999 16.06 285.999 13.64C285.999 11.5133 285.618 9.81933 284.855 8.558C284.092 7.29667 283.014 6.666 281.621 6.666ZM313.283 20.68C313.092 22.8067 312.894 24.6107 312.689 26.092H311.281C311.252 25.5493 311.2 24.7573 311.127 23.716C311.054 22.6893 310.995 22.1173 310.951 22H290.205V20.922L292.273 20.702V7.018L290.447 6.754V5.654H296.541V6.754L294.583 7.018V20.702H300.369V7.018L298.675 6.754V5.654H304.351V6.754L302.635 7.018V20.702H308.311V7.018L306.661 6.754V5.654H312.447V6.754L310.643 7.018V20.68H313.283ZM321.21 5.654V6.754L319.054 7.018V18.062L320.858 15.356L327.194 7.612V7.018L325.236 6.754V5.654H331.286V6.754L329.526 7.018V20.702L331.396 20.922V22H325.258V20.922L327.194 20.702V9.504L325.566 12.056L319.054 19.91V20.702L321.122 20.922V22H314.918V20.922L316.744 20.702V7.018L314.984 6.754V5.654H321.21ZM336.01 7.018L333.612 6.754V5.654H339.442L342.544 15.554L343.27 18.348L343.93 15.554L347.01 5.654H352.796V6.754L350.376 7.018L352.136 20.68L354.05 20.922V22H347.714V20.922L349.716 20.702L348.726 10.824L348.264 6.578L347.34 9.746L343.666 21.252H342.236L338.672 10.714L337.374 6.556L336.978 10.824L336.098 20.702L338.276 20.922V22H332.534V20.922L334.404 20.702L336.01 7.018ZM383.014 15.774H361.872V14.146H383.014V15.774ZM405.825 20.68C405.825 20.8707 405.745 21.8093 405.583 23.496C405.422 25.1827 405.334 26.048 405.319 26.092H403.911C403.882 25.5493 403.816 24.7573 403.713 23.716C403.625 22.6747 403.559 22.1027 403.515 22H393.461C393.403 22.0587 393.256 22.616 393.021 23.672C392.801 24.728 392.633 25.542 392.515 26.114H391.085C391.1 25.5273 391.129 24.6473 391.173 23.474C391.232 22.3153 391.283 21.384 391.327 20.68H392.933C393.285 20.24 393.667 19.5213 394.077 18.524C394.503 17.512 394.884 16.148 395.221 14.432C395.559 12.7013 395.727 10.6773 395.727 8.36V7.018L393.461 6.754V5.654H405.913V6.754L403.845 7.018V20.68H405.825ZM397.091 8.492C397.106 10.5747 396.981 12.4667 396.717 14.168C396.453 15.8547 396.138 17.248 395.771 18.348C395.419 19.448 395.097 20.2253 394.803 20.68H401.513L401.535 6.93H397.091V8.492ZM409.684 7.018L407.88 6.754V5.654H419.078L419.386 9.064H418.132L417.494 6.93L412.038 6.798V13.002L415.712 12.936L416.02 11.11H417.23V16.17H416.02L415.712 14.278L412.038 14.212V20.768L418.242 20.548L419.408 17.776L420.706 18.172L420.068 22H407.858V20.922L409.684 20.702V7.018ZM427.688 8.998C427.688 11.638 427.534 13.97 427.226 15.994C426.932 18.0033 426.485 19.5287 425.884 20.57C425.576 21.098 425.224 21.4867 424.828 21.736C424.432 21.9853 423.962 22.11 423.42 22.11C422.716 22.11 422.195 22.0733 421.858 22L421.704 20.218C422.041 20.262 422.591 20.284 423.354 20.284C423.632 20.284 423.874 20.2253 424.08 20.108C424.285 19.976 424.476 19.756 424.652 19.448C425.766 17.7173 426.324 14.1533 426.324 8.756V7.018L423.794 6.754V5.654H436.51V6.754L434.464 7.018V20.702L436.642 20.922V22H429.866V20.922L432.132 20.68L432.154 7.018H427.688V8.998ZM445.053 22.242C443.557 22.242 442.288 21.8973 441.247 21.208C440.22 20.5187 439.443 19.5507 438.915 18.304C438.387 17.0427 438.123 15.5833 438.123 13.926C438.123 12.2393 438.438 10.758 439.069 9.482C439.714 8.206 440.594 7.22333 441.709 6.534C442.824 5.83 444.078 5.478 445.471 5.478C447.759 5.478 449.504 6.204 450.707 7.656C451.924 9.09333 452.533 11.088 452.533 13.64C452.533 15.356 452.203 16.8667 451.543 18.172C450.898 19.4627 450.003 20.4673 448.859 21.186C447.73 21.89 446.461 22.242 445.053 22.242ZM445.339 6.622C443.916 6.622 442.794 7.24533 441.973 8.492C441.152 9.724 440.741 11.5353 440.741 13.926C440.741 16.126 441.137 17.8713 441.929 19.162C442.736 20.438 443.858 21.076 445.295 21.076C446.703 21.076 447.818 20.438 448.639 19.162C449.475 17.886 449.893 16.0527 449.893 13.662C449.893 11.4473 449.497 9.724 448.705 8.492C447.913 7.24533 446.791 6.622 445.339 6.622ZM461.355 7.018L459.639 6.754V5.654H462.565C463.093 5.654 463.613 5.632 464.127 5.588C464.919 5.52933 465.667 5.5 466.371 5.5C468.497 5.51467 470.001 5.91067 470.881 6.688C471.761 7.46533 472.201 8.63867 472.201 10.208C472.201 11.3813 471.929 12.4007 471.387 13.266C470.844 14.1313 470.089 14.7913 469.121 15.246C468.167 15.7007 467.067 15.928 465.821 15.928C465.395 15.928 464.963 15.9207 464.523 15.906C464.083 15.8767 463.811 15.8547 463.709 15.84V20.68L466.723 20.922V22H459.529V20.922L461.355 20.702V7.018ZM463.709 14.63C464.119 14.7033 464.823 14.74 465.821 14.74C466.979 14.74 467.918 14.388 468.637 13.684C469.37 12.98 469.737 11.8287 469.737 10.23C469.737 8.96867 469.421 8.06667 468.791 7.524C468.16 6.96667 467.177 6.688 465.843 6.688C465.373 6.688 464.875 6.71733 464.347 6.776C464.024 6.80533 463.811 6.82 463.709 6.82V14.63ZM481.186 18.612C481.127 18.7293 480.951 19.1473 480.658 19.866C480.364 20.57 479.946 21.142 479.404 21.582C478.861 22.022 478.23 22.242 477.512 22.242C477.13 22.242 476.749 22.2053 476.368 22.132C476.001 22.0733 475.7 21.9927 475.466 21.89V20.328L477.028 20.35C477.702 20.35 478.201 20.218 478.524 19.954C478.846 19.6753 479.125 19.184 479.36 18.48L473.816 7.018L472.628 6.754V5.654H478.568V6.754L476.412 7.018L479.954 14.674L480.614 16.676L481.34 14.652L484.134 7.018L482.264 6.754V5.654H486.972V6.754L485.828 7.018L481.186 18.612ZM495.175 13.442C495.762 13.662 496.349 14.1533 496.935 14.916C497.522 15.664 498.226 16.6833 499.047 17.974C499.605 18.8833 500.037 19.5507 500.345 19.976C500.653 20.3867 500.917 20.6213 501.137 20.68L501.973 20.922V22H499.245C498.908 22 498.527 21.714 498.101 21.142C497.691 20.5553 497.155 19.668 496.495 18.48C495.747 17.1453 495.124 16.1333 494.625 15.444C494.127 14.7547 493.65 14.41 493.195 14.41H491.787V20.68L493.745 20.944V22H487.717V20.9L489.499 20.68V7.018L487.717 6.754V5.654H493.613V6.754L491.787 7.018V13.354H493.679L498.123 7.018L496.275 6.754V5.654H501.687V6.754L499.949 7.018L495.175 13.442ZM515.644 22.242C514.031 22.242 512.652 21.8973 511.508 21.208C510.379 20.504 509.521 19.5213 508.934 18.26C508.347 16.9987 508.054 15.5173 508.054 13.816C508.054 12.1733 508.399 10.7213 509.088 9.46C509.777 8.19867 510.723 7.22333 511.926 6.534C513.129 5.83 514.478 5.478 515.974 5.478C517.103 5.478 518.46 5.654 520.044 6.006L520.77 6.138L520.55 10.098H519.076L518.526 7.304C518.321 7.128 517.961 6.98133 517.448 6.864C516.949 6.732 516.333 6.666 515.6 6.666C514.661 6.666 513.825 6.93733 513.092 7.48C512.359 8.008 511.779 8.79267 511.354 9.834C510.943 10.8753 510.738 12.122 510.738 13.574C510.738 14.9527 510.921 16.2067 511.288 17.336C511.655 18.4653 512.212 19.3673 512.96 20.042C513.708 20.702 514.632 21.032 515.732 21.032C516.509 21.032 517.103 20.966 517.514 20.834C517.939 20.702 518.299 20.5113 518.592 20.262L519.516 18.106L520.902 18.282L520.374 21.406C520.066 21.4207 519.611 21.5233 519.01 21.714C518.482 21.8753 517.969 22 517.47 22.088C516.986 22.1907 516.377 22.242 515.644 22.242ZM528.081 5.522H530.501L535.847 20.702L537.211 20.922V22H531.403V20.922L533.229 20.702L532.195 17.446H525.771L524.737 20.702L526.629 20.922V22H521.415V20.922L522.779 20.702L528.081 5.522ZM529.467 9.042L528.917 7.106L528.389 9.086L526.167 16.148H531.777L529.467 9.042ZM540.542 7.018L538.144 6.754V5.654H543.974L547.076 15.554L547.802 18.348L548.462 15.554L551.542 5.654H557.328V6.754L554.908 7.018L556.668 20.68L558.582 20.922V22H552.246V20.922L554.248 20.702L553.258 10.824L552.796 6.578L551.872 9.746L548.198 21.252H546.768L543.204 10.714L541.906 6.556L541.51 10.824L540.63 20.702L542.808 20.922V22H537.066V20.922L538.936 20.702L540.542 7.018ZM566.089 5.654V6.754L563.933 7.018V18.062L565.737 15.356L572.073 7.612V7.018L570.115 6.754V5.654H576.165V6.754L574.405 7.018V20.702L576.275 20.922V22H570.137V20.922L572.073 20.702V9.504L570.445 12.056L563.933 19.91V20.702L566.001 20.922V22H559.797V20.922L561.623 20.702V7.018L559.863 6.754V5.654H566.089ZM583.947 13.838L579.371 7.04L577.743 6.754V5.654H584.299V6.754L582.209 7.04L585.641 12.606L589.073 7.018L587.137 6.754V5.654H592.549V6.754L590.789 7.04L586.323 13.42L591.229 20.702L592.901 20.922V22H586.367V20.922L588.413 20.702L584.673 14.696L581.087 20.702L583.287 20.922V22H577.435V20.922L579.305 20.702L583.947 13.838ZM606.59 18.612C606.531 18.7293 606.355 19.1473 606.062 19.866C605.769 20.57 605.351 21.142 604.808 21.582C604.265 22.022 603.635 22.242 602.916 22.242C602.535 22.242 602.153 22.2053 601.772 22.132C601.405 22.0733 601.105 21.9927 600.87 21.89V20.328L602.432 20.35C603.107 20.35 603.605 20.218 603.928 19.954C604.251 19.6753 604.529 19.184 604.764 18.48L599.22 7.018L598.032 6.754V5.654H603.972V6.754L601.816 7.018L605.358 14.674L606.018 16.676L606.744 14.652L609.538 7.018L607.668 6.754V5.654H612.376V6.754L611.232 7.018L606.59 18.612ZM618.401 6.82L614.617 6.952L613.847 11.55H612.395L612.769 5.654H626.475L626.739 11.55H625.353L624.627 6.952L620.821 6.82V20.702L623.945 20.922V22H615.541V20.922L618.401 20.702V6.82ZM634.932 22.242C633.436 22.242 632.167 21.8973 631.126 21.208C630.099 20.5187 629.322 19.5507 628.794 18.304C628.266 17.0427 628.002 15.5833 628.002 13.926C628.002 12.2393 628.317 10.758 628.948 9.482C629.593 8.206 630.473 7.22333 631.588 6.534C632.703 5.83 633.957 5.478 635.35 5.478C637.638 5.478 639.383 6.204 640.586 7.656C641.803 9.09333 642.412 11.088 642.412 13.64C642.412 15.356 642.082 16.8667 641.422 18.172C640.777 19.4627 639.882 20.4673 638.738 21.186C637.609 21.89 636.34 22.242 634.932 22.242ZM635.218 6.622C633.795 6.622 632.673 7.24533 631.852 8.492C631.031 9.724 630.62 11.5353 630.62 13.926C630.62 16.126 631.016 17.8713 631.808 19.162C632.615 20.438 633.737 21.076 635.174 21.076C636.582 21.076 637.697 20.438 638.518 19.162C639.354 17.886 639.772 16.0527 639.772 13.662C639.772 11.4473 639.376 9.724 638.584 8.492C637.792 7.24533 636.67 6.622 635.218 6.622ZM659.609 5.654V6.754L657.739 7.04V20.68L659.785 20.922V22H653.581V20.922L655.407 20.68V6.952H648.367V20.702L650.413 20.922V22H644.253V20.922L646.035 20.702V7.018L644.165 6.754V5.654H659.609ZM667.021 5.522H669.441L674.787 20.702L676.151 20.922V22H670.343V20.922L672.169 20.702L671.135 17.446H664.711L663.677 20.702L665.569 20.922V22H660.355V20.922L661.719 20.702L667.021 5.522ZM668.407 9.042L667.857 7.106L667.329 9.086L665.107 16.148H670.717L668.407 9.042ZM684.673 12.936C684.82 11.396 685.238 10.0613 685.927 8.932C686.616 7.80267 687.482 6.94467 688.523 6.358C689.579 5.75667 690.716 5.46333 691.933 5.478C693.37 5.478 694.595 5.81533 695.607 6.49C696.634 7.15 697.411 8.08133 697.939 9.284C698.467 10.472 698.731 11.858 698.731 13.442C698.731 15.2167 698.416 16.7713 697.785 18.106C697.169 19.426 696.318 20.438 695.233 21.142C694.162 21.846 692.96 22.198 691.625 22.198C690.144 22.198 688.882 21.8753 687.841 21.23C686.8 20.57 686.008 19.646 685.465 18.458C684.922 17.2553 684.644 15.8547 684.629 14.256H681.109V20.68L683.001 20.922V22H676.951V20.922L678.755 20.68V7.018L676.995 6.754V5.654H682.913V6.754L681.087 7.018V12.936H684.673ZM691.779 6.666C690.386 6.666 689.271 7.27467 688.435 8.492C687.599 9.70933 687.181 11.5353 687.181 13.97C687.181 16.0967 687.577 17.798 688.369 19.074C689.176 20.35 690.305 20.988 691.757 20.988C693.15 20.988 694.228 20.372 694.991 19.14C695.768 17.8933 696.157 16.06 696.157 13.64C696.157 11.5133 695.776 9.81933 695.013 8.558C694.25 7.29667 693.172 6.666 691.779 6.666ZM723.441 20.68C723.251 22.8067 723.053 24.6107 722.847 26.092H721.439C721.41 25.5493 721.359 24.7573 721.285 23.716C721.212 22.6893 721.153 22.1173 721.109 22H700.363V20.922L702.431 20.702V7.018L700.605 6.754V5.654H706.699V6.754L704.741 7.018V20.702H710.527V7.018L708.833 6.754V5.654H714.509V6.754L712.793 7.018V20.702H718.469V7.018L716.819 6.754V5.654H722.605V6.754L720.801 7.018V20.68H723.441ZM731.368 5.654V6.754L729.212 7.018V18.062L731.016 15.356L737.352 7.612V7.018L735.394 6.754V5.654H741.444V6.754L739.684 7.018V20.702L741.554 20.922V22H735.416V20.922L737.352 20.702V9.504L735.724 12.056L729.212 19.91V20.702L731.28 20.922V22H725.076V20.922L726.902 20.702V7.018L725.142 6.754V5.654H731.368ZM749.227 13.838L744.651 7.04L743.023 6.754V5.654H749.579V6.754L747.489 7.04L750.921 12.606L754.353 7.018L752.417 6.754V5.654H757.829V6.754L756.069 7.04L751.603 13.42L756.509 20.702L758.181 20.922V22H751.647V20.922L753.693 20.702L749.953 14.696L746.367 20.702L748.567 20.922V22H742.715V20.922L744.585 20.702L749.227 13.838ZM762.733 16.764H761.325L760.665 2.574H763.349L762.733 16.764ZM760.577 20.834C760.577 20.394 760.745 20.02 761.083 19.712C761.42 19.404 761.801 19.25 762.227 19.25C762.696 19.25 763.055 19.382 763.305 19.646C763.554 19.91 763.679 20.24 763.679 20.636C763.679 21.1053 763.51 21.4867 763.173 21.78C762.85 22.0733 762.454 22.22 761.985 22.22C761.603 22.22 761.273 22.0953 760.995 21.846C760.716 21.582 760.577 21.2447 760.577 20.834Z" fill="white"/>
<circle cx="781" cy="14" r="3" fill="white"/>
<path d="M803.682 5.654V6.754L801.724 7.04V20.702H807.51V7.018L805.816 6.754V5.654H811.492V6.754L809.776 7.018V20.702H815.452V7.018L813.802 6.754V5.654H819.588V6.754L817.784 7.018V20.68L819.83 20.922V22H797.346V20.922L799.414 20.702V7.018L797.588 6.754V5.654H803.682ZM827.038 5.522H829.458L834.804 20.702L836.168 20.922V22H830.36V20.922L832.186 20.702L831.152 17.446H824.728L823.694 20.702L825.586 20.922V22H820.372V20.922L821.736 20.702L827.038 5.522ZM828.424 9.042L827.874 7.106L827.346 9.086L825.124 16.148H830.734L828.424 9.042ZM842.557 13.838L837.981 7.04L836.353 6.754V5.654H842.909V6.754L840.819 7.04L844.251 12.606L847.683 7.018L845.747 6.754V5.654H851.159V6.754L849.399 7.04L844.933 13.42L849.839 20.702L851.511 20.922V22H844.977V20.922L847.023 20.702L843.283 14.696L839.697 20.702L841.897 20.922V22H836.045V20.922L837.915 20.702L842.557 13.838ZM855.161 7.018L852.763 6.754V5.654H858.593L861.695 15.554L862.421 18.348L863.081 15.554L866.161 5.654H871.947V6.754L869.527 7.018L871.287 20.68L873.201 20.922V22H866.865V20.922L868.867 20.702L867.877 10.824L867.415 6.578L866.491 9.746L862.817 21.252H861.387L857.823 10.714L856.525 6.556L856.129 10.824L855.249 20.702L857.427 20.922V22H851.685V20.922L853.555 20.702L855.161 7.018ZM879.718 5.522H882.138L887.484 20.702L888.848 20.922V22H883.04V20.922L884.866 20.702L883.832 17.446H877.408L876.374 20.702L878.266 20.922V22H873.052V20.922L874.416 20.702L879.718 5.522ZM881.104 9.042L880.554 7.106L880.026 9.086L877.804 16.148H883.414L881.104 9.042ZM894.95 6.82L891.166 6.952L890.396 11.55H888.944L889.318 5.654H903.024L903.288 11.55H901.902L901.176 6.952L897.37 6.82V20.702L900.494 20.922V22H892.09V20.922L894.95 20.702V6.82ZM911.921 12.078C913.71 12.078 915.081 12.5033 916.035 13.354C916.988 14.19 917.465 15.3633 917.465 16.874C917.465 18.5607 916.929 19.866 915.859 20.79C914.788 21.714 913.373 22.176 911.613 22.176C911.378 22.176 911.129 22.1687 910.865 22.154C910.615 22.1393 910.359 22.1247 910.095 22.11C909.244 22.0367 908.489 22 907.829 22H904.837V20.922L906.685 20.702V6.996L904.903 6.71V5.654H911.173V6.71L909.017 6.996V12.1L911.921 12.078ZM925.737 5.654V6.754L923.691 7.018V20.702L925.737 20.944V22H919.269V20.922L921.315 20.702V7.018L919.269 6.754V5.654H925.737ZM909.017 20.79C909.398 20.8633 909.728 20.9147 910.007 20.944C910.3 20.9733 910.696 20.988 911.195 20.988C912.427 20.988 913.365 20.6433 914.011 19.954C914.671 19.2647 915.001 18.282 915.001 17.006C915.001 15.7887 914.678 14.8793 914.033 14.278C913.387 13.662 912.463 13.354 911.261 13.354L909.017 13.376V20.79ZM947.277 20.68C947.277 20.8707 947.196 21.8093 947.035 23.496C946.873 25.1827 946.785 26.048 946.771 26.092H945.363C945.333 25.5493 945.267 24.7573 945.165 23.716C945.077 22.6747 945.011 22.1027 944.967 22H934.913C934.854 22.0587 934.707 22.616 934.473 23.672C934.253 24.728 934.084 25.542 933.967 26.114H932.537C932.551 25.5273 932.581 24.6473 932.625 23.474C932.683 22.3153 932.735 21.384 932.779 20.68H934.385C934.737 20.24 935.118 19.5213 935.529 18.524C935.954 17.512 936.335 16.148 936.673 14.432C937.01 12.7013 937.179 10.6773 937.179 8.36V7.018L934.913 6.754V5.654H947.365V6.754L945.297 7.018V20.68H947.277ZM938.543 8.492C938.557 10.5747 938.433 12.4667 938.169 14.168C937.905 15.8547 937.589 17.248 937.223 18.348C936.871 19.448 936.548 20.2253 936.255 20.68H942.965L942.987 6.93H938.543V8.492ZM951.135 7.018L949.331 6.754V5.654H952.301C952.8 5.654 953.43 5.62467 954.193 5.566C954.897 5.50733 955.418 5.478 955.755 5.478C957.779 5.478 959.224 5.79333 960.089 6.424C960.969 7.05467 961.409 7.97867 961.409 9.196C961.409 10.2373 961.108 11.132 960.507 11.88C959.906 12.628 959.084 13.0973 958.043 13.288C959.451 13.2587 960.558 13.5887 961.365 14.278C962.172 14.9673 962.575 15.906 962.575 17.094C962.575 18.5753 962.047 19.7853 960.991 20.724C959.95 21.6627 958.219 22.132 955.799 22.132C955.271 22.132 954.765 22.11 954.281 22.066C953.137 22.022 952.455 22 952.235 22H949.309V20.922L951.135 20.702V7.018ZM953.467 12.87C953.672 12.8847 954.09 12.892 954.721 12.892H955.931C956.958 12.892 957.735 12.606 958.263 12.034C958.791 11.462 959.055 10.648 959.055 9.592C959.055 8.56533 958.791 7.81733 958.263 7.348C957.735 6.864 956.833 6.622 955.557 6.622C955.029 6.622 954.486 6.65133 953.929 6.71L953.467 6.754V12.87ZM953.467 20.768C953.804 20.8853 954.567 20.944 955.755 20.944C957.236 20.944 958.307 20.6433 958.967 20.042C959.642 19.426 959.979 18.546 959.979 17.402C959.979 16.2727 959.686 15.4513 959.099 14.938C958.527 14.4247 957.596 14.168 956.305 14.168C954.809 14.168 953.863 14.1827 953.467 14.212V20.768ZM970.727 5.654V6.754L968.571 7.018V18.062L970.375 15.356L976.711 7.612V7.018L974.753 6.754V5.654H980.803V6.754L979.043 7.018V20.702L980.913 20.922V22H974.775V20.922L976.711 20.702V9.504L975.083 12.056L968.571 19.91V20.702L970.639 20.922V22H964.435V20.922L966.261 20.702V7.018L964.501 6.754V5.654H970.727ZM994.13 5.654L994.284 11.44H992.81L992.172 6.974L987.332 6.798V20.68L991.16 20.922V22H982.536V20.922L984.956 20.68V7.04L982.602 6.732V5.654H994.13ZM1000.98 5.522H1003.4L1008.74 20.702L1010.11 20.922V22H1004.3V20.922L1006.12 20.702L1005.09 17.446H998.666L997.632 20.702L999.524 20.922V22H994.31V20.922L995.674 20.702L1000.98 5.522ZM1002.36 9.042L1001.81 7.106L1001.28 9.086L999.062 16.148H1004.67L1002.36 9.042ZM1018.63 12.936C1018.77 11.396 1019.19 10.0613 1019.88 8.932C1020.57 7.80267 1021.44 6.94467 1022.48 6.358C1023.53 5.75667 1024.67 5.46333 1025.89 5.478C1027.33 5.478 1028.55 5.81533 1029.56 6.49C1030.59 7.15 1031.37 8.08133 1031.89 9.284C1032.42 10.472 1032.69 11.858 1032.69 13.442C1032.69 15.2167 1032.37 16.7713 1031.74 18.106C1031.12 19.426 1030.27 20.438 1029.19 21.142C1028.12 21.846 1026.91 22.198 1025.58 22.198C1024.1 22.198 1022.84 21.8753 1021.8 21.23C1020.75 20.57 1019.96 19.646 1019.42 18.458C1018.88 17.2553 1018.6 15.8547 1018.58 14.256H1015.06V20.68L1016.96 20.922V22H1010.91V20.922L1012.71 20.68V7.018L1010.95 6.754V5.654H1016.87V6.754L1015.04 7.018V12.936H1018.63ZM1025.73 6.666C1024.34 6.666 1023.23 7.27467 1022.39 8.492C1021.55 9.70933 1021.14 11.5353 1021.14 13.97C1021.14 16.0967 1021.53 17.798 1022.32 19.074C1023.13 20.35 1024.26 20.988 1025.71 20.988C1027.11 20.988 1028.18 20.372 1028.95 19.14C1029.72 17.8933 1030.11 16.06 1030.11 13.64C1030.11 11.5133 1029.73 9.81933 1028.97 8.558C1028.21 7.29667 1027.13 6.666 1025.73 6.666ZM1039.86 6.82L1036.08 6.952L1035.31 11.55H1033.86L1034.23 5.654H1047.94L1048.2 11.55H1046.81L1046.09 6.952L1042.28 6.82V20.702L1045.41 20.922V22H1037V20.922L1039.86 20.702V6.82ZM1056.77 7.018L1054.97 6.754V5.654H1057.94C1058.44 5.654 1059.07 5.62467 1059.83 5.566C1060.54 5.50733 1061.06 5.478 1061.39 5.478C1063.42 5.478 1064.86 5.79333 1065.73 6.424C1066.61 7.05467 1067.05 7.97867 1067.05 9.196C1067.05 10.2373 1066.75 11.132 1066.15 11.88C1065.54 12.628 1064.72 13.0973 1063.68 13.288C1065.09 13.2587 1066.2 13.5887 1067 14.278C1067.81 14.9673 1068.21 15.906 1068.21 17.094C1068.21 18.5753 1067.69 19.7853 1066.63 20.724C1065.59 21.6627 1063.86 22.132 1061.44 22.132C1060.91 22.132 1060.4 22.11 1059.92 22.066C1058.78 22.022 1058.09 22 1057.87 22H1054.95V20.922L1056.77 20.702V7.018ZM1059.11 12.87C1059.31 12.8847 1059.73 12.892 1060.36 12.892H1061.57C1062.6 12.892 1063.37 12.606 1063.9 12.034C1064.43 11.462 1064.69 10.648 1064.69 9.592C1064.69 8.56533 1064.43 7.81733 1063.9 7.348C1063.37 6.864 1062.47 6.622 1061.2 6.622C1060.67 6.622 1060.12 6.65133 1059.57 6.71L1059.11 6.754V12.87ZM1059.11 20.768C1059.44 20.8853 1060.21 20.944 1061.39 20.944C1062.87 20.944 1063.95 20.6433 1064.61 20.042C1065.28 19.426 1065.62 18.546 1065.62 17.402C1065.62 16.2727 1065.32 15.4513 1064.74 14.938C1064.17 14.4247 1063.23 14.168 1061.94 14.168C1060.45 14.168 1059.5 14.1827 1059.11 14.212V20.768ZM1085.47 5.654V6.754L1083.6 7.04V20.68L1085.65 20.922V22H1079.45V20.922L1081.27 20.68V6.952H1074.23V20.702L1076.28 20.922V22H1070.12V20.922L1071.9 20.702V7.018L1070.03 6.754V5.654H1085.47ZM1089.34 7.018L1087.54 6.754V5.654H1098.74L1099.05 9.064H1097.79L1097.15 6.93L1091.7 6.798V13.002L1095.37 12.936L1095.68 11.11H1096.89V16.17H1095.68L1095.37 14.278L1091.7 14.212V20.768L1097.9 20.548L1099.07 17.776L1100.37 18.172L1099.73 22H1087.52V20.922L1089.34 20.702V7.018ZM1103.72 7.018L1102 6.754V5.654H1104.93C1105.46 5.654 1105.98 5.632 1106.49 5.588C1107.28 5.52933 1108.03 5.5 1108.73 5.5C1110.86 5.51467 1112.36 5.91067 1113.24 6.688C1114.12 7.46533 1114.56 8.63867 1114.56 10.208C1114.56 11.3813 1114.29 12.4007 1113.75 13.266C1113.21 14.1313 1112.45 14.7913 1111.48 15.246C1110.53 15.7007 1109.43 15.928 1108.18 15.928C1107.76 15.928 1107.33 15.9207 1106.89 15.906C1106.45 15.8767 1106.17 15.8547 1106.07 15.84V20.68L1109.09 20.922V22H1101.89V20.922L1103.72 20.702V7.018ZM1106.07 14.63C1106.48 14.7033 1107.19 14.74 1108.18 14.74C1109.34 14.74 1110.28 14.388 1111 13.684C1111.73 12.98 1112.1 11.8287 1112.1 10.23C1112.1 8.96867 1111.78 8.06667 1111.15 7.524C1110.52 6.96667 1109.54 6.688 1108.21 6.688C1107.74 6.688 1107.24 6.71733 1106.71 6.776C1106.39 6.80533 1106.17 6.82 1106.07 6.82V14.63ZM1117.96 7.018L1116.16 6.754V5.654H1127.36L1127.66 9.064H1126.41L1125.77 6.93L1120.32 6.798V13.002L1123.99 12.936L1124.3 11.11H1125.51V16.17H1124.3L1123.99 14.278L1120.32 14.212V20.768L1126.52 20.548L1127.69 17.776L1128.98 18.172L1128.35 22H1116.14V20.922L1117.96 20.702V7.018ZM1119.44 3.982C1119.07 3.982 1118.78 3.85 1118.56 3.586C1118.34 3.30733 1118.23 2.97733 1118.23 2.596C1118.23 2.12667 1118.34 1.738 1118.58 1.43C1118.83 1.122 1119.19 0.967999 1119.66 0.967999H1119.68C1120.09 0.967999 1120.41 1.10733 1120.65 1.386C1120.88 1.66467 1121 1.99467 1121 2.376C1121 2.84533 1120.87 3.234 1120.6 3.542C1120.34 3.83533 1119.96 3.982 1119.46 3.982H1119.44ZM1124.83 3.982C1124.46 3.982 1124.16 3.85 1123.92 3.586C1123.7 3.30733 1123.59 2.97733 1123.59 2.596C1123.59 2.14133 1123.72 1.76 1123.97 1.452C1124.22 1.12933 1124.57 0.967999 1125.02 0.967999H1125.05C1125.46 0.967999 1125.77 1.10733 1125.99 1.386C1126.23 1.66467 1126.34 1.99467 1126.34 2.376C1126.34 2.84533 1126.21 3.234 1125.95 3.542C1125.7 3.83533 1125.32 3.982 1124.83 3.982ZM1144.59 20.68C1144.59 20.8707 1144.51 21.8093 1144.35 23.496C1144.19 25.1827 1144.1 26.048 1144.08 26.092H1142.68C1142.65 25.5493 1142.58 24.7573 1142.48 23.716C1142.39 22.6747 1142.32 22.1027 1142.28 22H1132.23C1132.17 22.0587 1132.02 22.616 1131.79 23.672C1131.57 24.728 1131.4 25.542 1131.28 26.114H1129.85C1129.86 25.5273 1129.89 24.6473 1129.94 23.474C1130 22.3153 1130.05 21.384 1130.09 20.68H1131.7C1132.05 20.24 1132.43 19.5213 1132.84 18.524C1133.27 17.512 1133.65 16.148 1133.99 14.432C1134.32 12.7013 1134.49 10.6773 1134.49 8.36V7.018L1132.23 6.754V5.654H1144.68V6.754L1142.61 7.018V20.68H1144.59ZM1135.86 8.492C1135.87 10.5747 1135.75 12.4667 1135.48 14.168C1135.22 15.8547 1134.9 17.248 1134.54 18.348C1134.18 19.448 1133.86 20.2253 1133.57 20.68H1140.28L1140.3 6.93H1135.86V8.492ZM1153.71 7.018L1151.97 6.754V5.654H1157.96V6.754L1156.07 7.018V12.936H1163.81V7.018L1162.03 6.754V5.654H1167.92V6.754L1166.19 7.018V20.702L1167.92 20.922V22H1162.01V20.922L1163.81 20.702V14.3H1156.07V20.702L1157.98 20.922V22H1151.93V20.922L1153.71 20.702V7.018ZM1171.89 7.018L1170.08 6.754V5.654H1181.28L1181.59 9.064H1180.33L1179.7 6.93L1174.24 6.798V13.002L1177.91 12.936L1178.22 11.11H1179.43V16.17H1178.22L1177.91 14.278L1174.24 14.212V20.768L1180.44 20.548L1181.61 17.776L1182.91 18.172L1182.27 22H1170.06V20.922L1171.89 20.702V7.018ZM1194.98 6.82L1191.2 6.952L1190.43 11.55H1188.97L1189.35 5.654H1203.05L1203.32 11.55H1201.93L1201.21 6.952L1197.4 6.82V20.702L1200.52 20.922V22H1192.12V20.922L1194.98 20.702V6.82ZM1211.51 22.242C1210.01 22.242 1208.75 21.8973 1207.7 21.208C1206.68 20.5187 1205.9 19.5507 1205.37 18.304C1204.84 17.0427 1204.58 15.5833 1204.58 13.926C1204.58 12.2393 1204.9 10.758 1205.53 9.482C1206.17 8.206 1207.05 7.22333 1208.17 6.534C1209.28 5.83 1210.53 5.478 1211.93 5.478C1214.22 5.478 1215.96 6.204 1217.16 7.656C1218.38 9.09333 1218.99 11.088 1218.99 13.64C1218.99 15.356 1218.66 16.8667 1218 18.172C1217.35 19.4627 1216.46 20.4673 1215.32 21.186C1214.19 21.89 1212.92 22.242 1211.51 22.242ZM1211.8 6.622C1210.37 6.622 1209.25 7.24533 1208.43 8.492C1207.61 9.724 1207.2 11.5353 1207.2 13.926C1207.2 16.126 1207.59 17.8713 1208.39 19.162C1209.19 20.438 1210.31 21.076 1211.75 21.076C1213.16 21.076 1214.27 20.438 1215.1 19.162C1215.93 17.886 1216.35 16.0527 1216.35 13.662C1216.35 11.4473 1215.95 9.724 1215.16 8.492C1214.37 7.24533 1213.25 6.622 1211.8 6.622ZM1226.22 8.998C1226.22 11.638 1226.07 13.97 1225.76 15.994C1225.47 18.0033 1225.02 19.5287 1224.42 20.57C1224.11 21.098 1223.76 21.4867 1223.36 21.736C1222.96 21.9853 1222.5 22.11 1221.95 22.11C1221.25 22.11 1220.73 22.0733 1220.39 22L1220.24 20.218C1220.57 20.262 1221.12 20.284 1221.89 20.284C1222.17 20.284 1222.41 20.2253 1222.61 20.108C1222.82 19.976 1223.01 19.756 1223.18 19.448C1224.3 17.7173 1224.86 14.1533 1224.86 8.756V7.018L1222.33 6.754V5.654H1235.04V6.754L1233 7.018V20.702L1235.17 20.922V22H1228.4V20.922L1230.66 20.68L1230.69 7.018H1226.22V8.998ZM1244.03 12.078C1245.82 12.078 1247.19 12.5033 1248.14 13.354C1249.09 14.19 1249.57 15.3633 1249.57 16.874C1249.57 18.5607 1249.03 19.866 1247.96 20.79C1246.89 21.714 1245.48 22.176 1243.72 22.176C1243.48 22.176 1243.23 22.1687 1242.97 22.154C1242.72 22.1393 1242.46 22.1247 1242.2 22.11C1241.35 22.0367 1240.59 22 1239.93 22H1236.94V20.922L1238.79 20.702V6.996L1237.01 6.71V5.654H1243.28V6.71L1241.12 6.996V12.1L1244.03 12.078ZM1241.12 20.79C1241.5 20.8633 1241.83 20.9147 1242.11 20.944C1242.41 20.9733 1242.8 20.988 1243.3 20.988C1244.53 20.988 1245.47 20.6433 1246.12 19.954C1246.78 19.2647 1247.11 18.282 1247.11 17.006C1247.11 15.7887 1246.78 14.8793 1246.14 14.278C1245.49 13.662 1244.57 13.354 1243.37 13.354L1241.12 13.376V20.79ZM1258.73 13.442C1259.32 13.662 1259.91 14.1533 1260.49 14.916C1261.08 15.664 1261.78 16.6833 1262.6 17.974C1263.16 18.8833 1263.59 19.5507 1263.9 19.976C1264.21 20.3867 1264.47 20.6213 1264.69 20.68L1265.53 20.922V22H1262.8C1262.46 22 1262.08 21.714 1261.66 21.142C1261.25 20.5553 1260.71 19.668 1260.05 18.48C1259.3 17.1453 1258.68 16.1333 1258.18 15.444C1257.68 14.7547 1257.21 14.41 1256.75 14.41H1255.34V20.68L1257.3 20.944V22H1251.27V20.9L1253.06 20.68V7.018L1251.27 6.754V5.654H1257.17V6.754L1255.34 7.018V13.354H1257.24L1261.68 7.018L1259.83 6.754V5.654H1265.24V6.754L1263.51 7.018L1258.73 13.442ZM1273.34 22.242C1271.85 22.242 1270.58 21.8973 1269.54 21.208C1268.51 20.5187 1267.73 19.5507 1267.2 18.304C1266.68 17.0427 1266.41 15.5833 1266.41 13.926C1266.41 12.2393 1266.73 10.758 1267.36 9.482C1268 8.206 1268.88 7.22333 1270 6.534C1271.11 5.83 1272.37 5.478 1273.76 5.478C1276.05 5.478 1277.79 6.204 1279 7.656C1280.21 9.09333 1280.82 11.088 1280.82 13.64C1280.82 15.356 1280.49 16.8667 1279.83 18.172C1279.19 19.4627 1278.29 20.4673 1277.15 21.186C1276.02 21.89 1274.75 22.242 1273.34 22.242ZM1273.63 6.622C1272.21 6.622 1271.08 7.24533 1270.26 8.492C1269.44 9.724 1269.03 11.5353 1269.03 13.926C1269.03 16.126 1269.43 17.8713 1270.22 19.162C1271.02 20.438 1272.15 21.076 1273.58 21.076C1274.99 21.076 1276.11 20.438 1276.93 19.162C1277.76 17.886 1278.18 16.0527 1278.18 13.662C1278.18 11.4473 1277.79 9.724 1276.99 8.492C1276.2 7.24533 1275.08 6.622 1273.63 6.622ZM1295.32 13.442C1295.91 13.662 1296.49 14.1533 1297.08 14.916C1297.67 15.664 1298.37 16.6833 1299.19 17.974C1299.75 18.8833 1300.18 19.5507 1300.49 19.976C1300.8 20.3867 1301.06 20.6213 1301.28 20.68L1302.12 20.922V22H1299.39C1299.05 22 1298.67 21.714 1298.25 21.142C1297.84 20.5553 1297.3 19.668 1296.64 18.48C1295.89 17.1453 1295.27 16.1333 1294.77 15.444C1294.27 14.7547 1293.79 14.41 1293.34 14.41H1291.93V20.68L1293.89 20.944V22H1287.86V20.9L1289.64 20.68V7.018L1287.86 6.754V5.654H1293.76V6.754L1291.93 7.018V13.354H1293.82L1298.27 7.018L1296.42 6.754V5.654H1301.83V6.754L1300.09 7.018L1295.32 13.442ZM1310.68 18.612C1310.62 18.7293 1310.44 19.1473 1310.15 19.866C1309.86 20.57 1309.44 21.142 1308.9 21.582C1308.35 22.022 1307.72 22.242 1307 22.242C1306.62 22.242 1306.24 22.2053 1305.86 22.132C1305.49 22.0733 1305.19 21.9927 1304.96 21.89V20.328L1306.52 20.35C1307.19 20.35 1307.69 20.218 1308.02 19.954C1308.34 19.6753 1308.62 19.184 1308.85 18.48L1303.31 7.018L1302.12 6.754V5.654H1308.06V6.754L1305.9 7.018L1309.45 14.674L1310.11 16.676L1310.83 14.652L1313.63 7.018L1311.76 6.754V5.654H1316.46V6.754L1315.32 7.018L1310.68 18.612ZM1322.62 8.998C1322.62 11.638 1322.47 13.97 1322.16 15.994C1321.87 18.0033 1321.42 19.5287 1320.82 20.57C1320.51 21.098 1320.16 21.4867 1319.76 21.736C1319.37 21.9853 1318.9 22.11 1318.35 22.11C1317.65 22.11 1317.13 22.0733 1316.79 22L1316.64 20.218C1316.97 20.262 1317.52 20.284 1318.29 20.284C1318.57 20.284 1318.81 20.2253 1319.01 20.108C1319.22 19.976 1319.41 19.756 1319.59 19.448C1320.7 17.7173 1321.26 14.1533 1321.26 8.756V7.018L1318.73 6.754V5.654H1331.44V6.754L1329.4 7.018V20.702L1331.58 20.922V22H1324.8V20.922L1327.07 20.68L1327.09 7.018H1322.62V8.998ZM1340.43 12.078C1342.22 12.078 1343.59 12.5033 1344.54 13.354C1345.49 14.19 1345.97 15.3633 1345.97 16.874C1345.97 18.5607 1345.44 19.866 1344.36 20.79C1343.29 21.714 1341.88 22.176 1340.12 22.176C1339.88 22.176 1339.63 22.1687 1339.37 22.154C1339.12 22.1393 1338.86 22.1247 1338.6 22.11C1337.75 22.0367 1336.99 22 1336.33 22H1333.34V20.922L1335.19 20.702V6.996L1333.41 6.71V5.654H1339.68V6.71L1337.52 6.996V12.1L1340.43 12.078ZM1337.52 20.79C1337.9 20.8633 1338.23 20.9147 1338.51 20.944C1338.81 20.9733 1339.2 20.988 1339.7 20.988C1340.93 20.988 1341.87 20.6433 1342.52 19.954C1343.18 19.2647 1343.51 18.282 1343.51 17.006C1343.51 15.7887 1343.18 14.8793 1342.54 14.278C1341.89 13.662 1340.97 13.354 1339.77 13.354L1337.52 13.376V20.79ZM1352.95 6.82L1349.17 6.952L1348.4 11.55H1346.95L1347.32 5.654H1361.03L1361.29 11.55H1359.91L1359.18 6.952L1355.37 6.82V20.702L1358.5 20.922V22H1350.09V20.922L1352.95 20.702V6.82ZM1370.23 18.612C1370.17 18.7293 1370 19.1473 1369.7 19.866C1369.41 20.57 1368.99 21.142 1368.45 21.582C1367.91 22.022 1367.28 22.242 1366.56 22.242C1366.18 22.242 1365.8 22.2053 1365.41 22.132C1365.05 22.0733 1364.75 21.9927 1364.51 21.89V20.328L1366.07 20.35C1366.75 20.35 1367.25 20.218 1367.57 19.954C1367.89 19.6753 1368.17 19.184 1368.41 18.48L1362.86 7.018L1361.67 6.754V5.654H1367.61V6.754L1365.46 7.018L1369 14.674L1369.66 16.676L1370.39 14.652L1373.18 7.018L1371.31 6.754V5.654H1376.02V6.754L1374.87 7.018L1370.23 18.612ZM1378.55 7.018L1376.83 6.754V5.654H1379.76C1380.28 5.654 1380.8 5.632 1381.32 5.588C1382.11 5.52933 1382.86 5.5 1383.56 5.5C1385.69 5.51467 1387.19 5.91067 1388.07 6.688C1388.95 7.46533 1389.39 8.63867 1389.39 10.208C1389.39 11.3813 1389.12 12.4007 1388.58 13.266C1388.04 14.1313 1387.28 14.7913 1386.31 15.246C1385.36 15.7007 1384.26 15.928 1383.01 15.928C1382.59 15.928 1382.15 15.9207 1381.71 15.906C1381.27 15.8767 1381 15.8547 1380.9 15.84V20.68L1383.91 20.922V22H1376.72V20.922L1378.55 20.702V7.018ZM1380.9 14.63C1381.31 14.7033 1382.01 14.74 1383.01 14.74C1384.17 14.74 1385.11 14.388 1385.83 13.684C1386.56 12.98 1386.93 11.8287 1386.93 10.23C1386.93 8.96867 1386.61 8.06667 1385.98 7.524C1385.35 6.96667 1384.37 6.688 1383.03 6.688C1382.56 6.688 1382.07 6.71733 1381.54 6.776C1381.22 6.80533 1381 6.82 1380.9 6.82V14.63ZM1398.38 18.612C1398.32 18.7293 1398.14 19.1473 1397.85 19.866C1397.56 20.57 1397.14 21.142 1396.6 21.582C1396.05 22.022 1395.42 22.242 1394.7 22.242C1394.32 22.242 1393.94 22.2053 1393.56 22.132C1393.19 22.0733 1392.89 21.9927 1392.66 21.89V20.328L1394.22 20.35C1394.89 20.35 1395.39 20.218 1395.72 19.954C1396.04 19.6753 1396.32 19.184 1396.55 18.48L1391.01 7.018L1389.82 6.754V5.654H1395.76V6.754L1393.6 7.018L1397.15 14.674L1397.81 16.676L1398.53 14.652L1401.33 7.018L1399.46 6.754V5.654H1404.16V6.754L1403.02 7.018L1398.38 18.612ZM1407.59 18.7C1408.09 18.7 1408.5 18.942 1408.82 19.426C1409.15 19.8953 1409.31 20.5407 1409.31 21.362C1409.31 22.198 1409.18 23.0047 1408.91 23.782C1408.65 24.5593 1408.32 25.2193 1407.92 25.762C1407.53 26.3193 1407.14 26.708 1406.76 26.928H1406.73L1405.99 26.4V26.158C1406.28 25.9233 1406.57 25.41 1406.87 24.618C1407.17 23.8407 1407.33 23.1 1407.33 22.396C1407.33 22.176 1407.28 22 1407.2 21.868C1407.12 21.7213 1407 21.5527 1406.82 21.362C1406.62 21.142 1406.46 20.9367 1406.36 20.746C1406.26 20.5553 1406.21 20.2987 1406.21 19.976C1406.21 19.5947 1406.32 19.2867 1406.56 19.052C1406.81 18.8173 1407.12 18.7 1407.48 18.7H1407.59ZM1419.28 7.018L1417.54 6.754V5.654H1423.53V6.754L1421.63 7.018V12.936H1429.38V7.018L1427.6 6.754V5.654H1433.49V6.754L1431.75 7.018V20.702L1433.49 20.922V22H1427.57V20.922L1429.38 20.702V14.3H1421.63V20.702L1423.55 20.922V22H1417.5V20.922L1419.28 20.702V7.018ZM1442.3 22.242C1440.8 22.242 1439.53 21.8973 1438.49 21.208C1437.46 20.5187 1436.69 19.5507 1436.16 18.304C1435.63 17.0427 1435.37 15.5833 1435.37 13.926C1435.37 12.2393 1435.68 10.758 1436.31 9.482C1436.96 8.206 1437.84 7.22333 1438.95 6.534C1440.07 5.83 1441.32 5.478 1442.71 5.478C1445 5.478 1446.75 6.204 1447.95 7.656C1449.17 9.09333 1449.78 11.088 1449.78 13.64C1449.78 15.356 1449.45 16.8667 1448.79 18.172C1448.14 19.4627 1447.25 20.4673 1446.1 21.186C1444.97 21.89 1443.7 22.242 1442.3 22.242ZM1442.58 6.622C1441.16 6.622 1440.04 7.24533 1439.22 8.492C1438.39 9.724 1437.98 11.5353 1437.98 13.926C1437.98 16.126 1438.38 17.8713 1439.17 19.162C1439.98 20.438 1441.1 21.076 1442.54 21.076C1443.95 21.076 1445.06 20.438 1445.88 19.162C1446.72 17.886 1447.14 16.0527 1447.14 13.662C1447.14 11.4473 1446.74 9.724 1445.95 8.492C1445.16 7.24533 1444.03 6.622 1442.58 6.622ZM1463.08 5.654V6.754L1460.93 7.018V18.062L1462.73 15.356L1469.07 7.612V7.018L1467.11 6.754V5.654H1473.16V6.754L1471.4 7.018V20.702L1473.27 20.922V22H1467.13V20.922L1469.07 20.702V9.504L1467.44 12.056L1460.93 19.91V20.702L1463 20.922V22H1456.79V20.922L1458.62 20.702V7.018L1456.86 6.754V5.654H1463.08ZM1480.77 6.314C1481.14 6.29933 1481.61 6.204 1482.18 6.028C1482.83 5.852 1483.41 5.72 1483.94 5.632C1484.48 5.52933 1485.14 5.478 1485.92 5.478C1487.48 5.478 1488.81 5.83733 1489.93 6.556C1491.04 7.26 1491.88 8.25 1492.46 9.526C1493.04 10.802 1493.34 12.276 1493.34 13.948C1493.34 15.5907 1493.01 17.0427 1492.37 18.304C1491.72 19.5507 1490.81 20.5187 1489.64 21.208C1488.47 21.8973 1487.11 22.242 1485.57 22.242C1484.95 22.242 1484.42 22.198 1483.96 22.11C1483.51 22.022 1482.99 21.8973 1482.4 21.736C1481.74 21.5307 1481.24 21.428 1480.88 21.428L1480.49 18.172L1482.01 17.93L1482.89 20.108C1483.21 20.3573 1483.59 20.57 1484.03 20.746C1484.48 20.922 1485.1 21.01 1485.88 21.01C1486.8 21.01 1487.62 20.7533 1488.32 20.24C1489.04 19.712 1489.6 18.9493 1490.01 17.952C1490.42 16.94 1490.64 15.73 1490.65 14.322L1483.46 14.52V12.738L1490.59 12.936C1490.44 11.088 1489.96 9.58467 1489.13 8.426C1488.33 7.26733 1487.21 6.688 1485.77 6.688C1485.02 6.688 1484.44 6.78333 1484.03 6.974C1483.62 7.15 1483.24 7.392 1482.89 7.7L1482.29 9.812H1480.73L1480.77 6.314ZM1502.62 13.442C1503.21 13.662 1503.8 14.1533 1504.38 14.916C1504.97 15.664 1505.67 16.6833 1506.49 17.974C1507.05 18.8833 1507.48 19.5507 1507.79 19.976C1508.1 20.3867 1508.36 20.6213 1508.58 20.68L1509.42 20.922V22H1506.69C1506.36 22 1505.97 21.714 1505.55 21.142C1505.14 20.5553 1504.6 19.668 1503.94 18.48C1503.19 17.1453 1502.57 16.1333 1502.07 15.444C1501.57 14.7547 1501.1 14.41 1500.64 14.41H1499.23V20.68L1501.19 20.944V22H1495.16V20.9L1496.95 20.68V7.018L1495.16 6.754V5.654H1501.06V6.754L1499.23 7.018V13.354H1501.13L1505.57 7.018L1503.72 6.754V5.654H1509.13V6.754L1507.4 7.018L1502.62 13.442ZM1517.23 22.242C1515.74 22.242 1514.47 21.8973 1513.43 21.208C1512.4 20.5187 1511.62 19.5507 1511.09 18.304C1510.57 17.0427 1510.3 15.5833 1510.3 13.926C1510.3 12.2393 1510.62 10.758 1511.25 9.482C1511.89 8.206 1512.77 7.22333 1513.89 6.534C1515 5.83 1516.26 5.478 1517.65 5.478C1519.94 5.478 1521.68 6.204 1522.89 7.656C1524.1 9.09333 1524.71 11.088 1524.71 13.64C1524.71 15.356 1524.38 16.8667 1523.72 18.172C1523.08 19.4627 1522.18 20.4673 1521.04 21.186C1519.91 21.89 1518.64 22.242 1517.23 22.242ZM1517.52 6.622C1516.1 6.622 1514.97 7.24533 1514.15 8.492C1513.33 9.724 1512.92 11.5353 1512.92 13.926C1512.92 16.126 1513.32 17.8713 1514.11 19.162C1514.92 20.438 1516.04 21.076 1517.47 21.076C1518.88 21.076 1520 20.438 1520.82 19.162C1521.65 17.886 1522.07 16.0527 1522.07 13.662C1522.07 11.4473 1521.68 9.724 1520.88 8.492C1520.09 7.24533 1518.97 6.622 1517.52 6.622ZM1528.31 7.018L1526.58 6.754V5.654H1532.56V6.754L1530.67 7.018V12.936H1538.41V7.018L1536.63 6.754V5.654H1542.53V6.754L1540.79 7.018V20.702L1542.53 20.922V22H1536.61V20.922L1538.41 20.702V14.3H1530.67V20.702L1532.58 20.922V22H1526.53V20.922L1528.31 20.702V7.018ZM1551.33 22.242C1549.83 22.242 1548.56 21.8973 1547.52 21.208C1546.5 20.5187 1545.72 19.5507 1545.19 18.304C1544.66 17.0427 1544.4 15.5833 1544.4 13.926C1544.4 12.2393 1544.71 10.758 1545.34 9.482C1545.99 8.206 1546.87 7.22333 1547.98 6.534C1549.1 5.83 1550.35 5.478 1551.75 5.478C1554.03 5.478 1555.78 6.204 1556.98 7.656C1558.2 9.09333 1558.81 11.088 1558.81 13.64C1558.81 15.356 1558.48 16.8667 1557.82 18.172C1557.17 19.4627 1556.28 20.4673 1555.13 21.186C1554.01 21.89 1552.74 22.242 1551.33 22.242ZM1551.61 6.622C1550.19 6.622 1549.07 7.24533 1548.25 8.492C1547.43 9.724 1547.02 11.5353 1547.02 13.926C1547.02 16.126 1547.41 17.8713 1548.2 19.162C1549.01 20.438 1550.13 21.076 1551.57 21.076C1552.98 21.076 1554.09 20.438 1554.91 19.162C1555.75 17.886 1556.17 16.0527 1556.17 13.662C1556.17 11.4473 1555.77 9.724 1554.98 8.492C1554.19 7.24533 1553.07 6.622 1551.61 6.622ZM1563.14 7.018L1560.74 6.754V5.654H1566.57L1569.67 15.554L1570.4 18.348L1571.06 15.554L1574.14 5.654H1579.92V6.754L1577.5 7.018L1579.26 20.68L1581.18 20.922V22H1574.84V20.922L1576.84 20.702L1575.85 10.824L1575.39 6.578L1574.47 9.746L1570.79 21.252H1569.36L1565.8 10.714L1564.5 6.556L1564.1 10.824L1563.22 20.702L1565.4 20.922V22H1559.66V20.922L1561.53 20.702L1563.14 7.018ZM1588.68 5.654V6.754L1586.53 7.018V18.062L1588.33 15.356L1594.67 7.612V7.018L1592.71 6.754V5.654H1598.76V6.754L1597 7.018V20.702L1598.87 20.922V22H1592.73V20.922L1594.67 20.702V9.504L1593.04 12.056L1586.53 19.91V20.702L1588.59 20.922V22H1582.39V20.922L1584.22 20.702V7.018L1582.46 6.754V5.654H1588.68ZM1608.43 13.442C1609.02 13.662 1609.61 14.1533 1610.19 14.916C1610.78 15.664 1611.48 16.6833 1612.3 17.974C1612.86 18.8833 1613.3 19.5507 1613.6 19.976C1613.91 20.3867 1614.18 20.6213 1614.4 20.68L1615.23 20.922V22H1612.5C1612.17 22 1611.78 21.714 1611.36 21.142C1610.95 20.5553 1610.41 19.668 1609.75 18.48C1609.01 17.1453 1608.38 16.1333 1607.88 15.444C1607.38 14.7547 1606.91 14.41 1606.45 14.41H1605.05V20.68L1607 20.944V22H1600.98V20.9L1602.76 20.68V7.018L1600.98 6.754V5.654H1606.87V6.754L1605.05 7.018V13.354H1606.94L1611.38 7.018L1609.53 6.754V5.654H1614.95V6.754L1613.21 7.018L1608.43 13.442ZM1623.79 18.612C1623.73 18.7293 1623.56 19.1473 1623.26 19.866C1622.97 20.57 1622.55 21.142 1622.01 21.582C1621.47 22.022 1620.84 22.242 1620.12 22.242C1619.74 22.242 1619.35 22.2053 1618.97 22.132C1618.61 22.0733 1618.31 21.9927 1618.07 21.89V20.328L1619.63 20.35C1620.31 20.35 1620.81 20.218 1621.13 19.954C1621.45 19.6753 1621.73 19.184 1621.97 18.48L1616.42 7.018L1615.23 6.754V5.654H1621.17V6.754L1619.02 7.018L1622.56 14.674L1623.22 16.676L1623.95 14.652L1626.74 7.018L1624.87 6.754V5.654H1629.58V6.754L1628.43 7.018L1623.79 18.612ZM1633.73 16.764H1632.32L1631.66 2.574H1634.35L1633.73 16.764ZM1631.58 20.834C1631.58 20.394 1631.75 20.02 1632.08 19.712C1632.42 19.404 1632.8 19.25 1633.23 19.25C1633.7 19.25 1634.06 19.382 1634.3 19.646C1634.55 19.91 1634.68 20.24 1634.68 20.636C1634.68 21.1053 1634.51 21.4867 1634.17 21.78C1633.85 22.0733 1633.45 22.22 1632.98 22.22C1632.6 22.22 1632.27 22.0953 1631.99 21.846C1631.72 21.582 1631.58 21.2447 1631.58 20.834Z" fill="white"/>
<circle cx="1652" cy="14" r="3" fill="white"/>
<path d="M1673.72 8.998C1673.72 11.638 1673.56 13.97 1673.25 15.994C1672.96 18.0033 1672.51 19.5287 1671.91 20.57C1671.6 21.098 1671.25 21.4867 1670.86 21.736C1670.46 21.9853 1669.99 22.11 1669.45 22.11C1668.74 22.11 1668.22 22.0733 1667.89 22L1667.73 20.218C1668.07 20.262 1668.62 20.284 1669.38 20.284C1669.66 20.284 1669.9 20.2253 1670.11 20.108C1670.31 19.976 1670.5 19.756 1670.68 19.448C1671.79 17.7173 1672.35 14.1533 1672.35 8.756V7.018L1669.82 6.754V5.654H1682.54V6.754L1680.49 7.018V20.702L1682.67 20.922V22H1675.89V20.922L1678.16 20.68L1678.18 7.018H1673.72V8.998ZM1686.24 7.018L1684.44 6.754V5.654H1695.63L1695.94 9.064H1694.69L1694.05 6.93L1688.59 6.798V13.002L1692.27 12.936L1692.58 11.11H1693.79V16.17H1692.58L1692.27 14.278L1688.59 14.212V20.768L1694.8 20.548L1695.96 17.776L1697.26 18.172L1696.62 22H1684.41V20.922L1686.24 20.702V7.018ZM1687.71 3.982C1687.35 3.982 1687.05 3.85 1686.83 3.586C1686.61 3.30733 1686.5 2.97733 1686.5 2.596C1686.5 2.12667 1686.62 1.738 1686.86 1.43C1687.11 1.122 1687.47 0.967999 1687.93 0.967999H1687.96C1688.37 0.967999 1688.69 1.10733 1688.92 1.386C1689.16 1.66467 1689.28 1.99467 1689.28 2.376C1689.28 2.84533 1689.14 3.234 1688.88 3.542C1688.62 3.83533 1688.24 3.982 1687.74 3.982H1687.71ZM1693.1 3.982C1692.74 3.982 1692.44 3.85 1692.2 3.586C1691.98 3.30733 1691.87 2.97733 1691.87 2.596C1691.87 2.14133 1692 1.76 1692.25 1.452C1692.5 1.12933 1692.85 0.967999 1693.3 0.967999H1693.32C1693.74 0.967999 1694.05 1.10733 1694.27 1.386C1694.51 1.66467 1694.62 1.99467 1694.62 2.376C1694.62 2.84533 1694.49 3.234 1694.23 3.542C1693.98 3.83533 1693.6 3.982 1693.1 3.982ZM1712.87 20.68C1712.87 20.8707 1712.79 21.8093 1712.63 23.496C1712.47 25.1827 1712.38 26.048 1712.36 26.092H1710.95C1710.93 25.5493 1710.86 24.7573 1710.76 23.716C1710.67 22.6747 1710.6 22.1027 1710.56 22H1700.5C1700.45 22.0587 1700.3 22.616 1700.06 23.672C1699.84 24.728 1699.68 25.542 1699.56 26.114H1698.13C1698.14 25.5273 1698.17 24.6473 1698.22 23.474C1698.28 22.3153 1698.33 21.384 1698.37 20.68H1699.98C1700.33 20.24 1700.71 19.5213 1701.12 18.524C1701.55 17.512 1701.93 16.148 1702.26 14.432C1702.6 12.7013 1702.77 10.6773 1702.77 8.36V7.018L1700.5 6.754V5.654H1712.96V6.754L1710.89 7.018V20.68H1712.87ZM1704.13 8.492C1704.15 10.5747 1704.02 12.4667 1703.76 14.168C1703.5 15.8547 1703.18 17.248 1702.81 18.348C1702.46 19.448 1702.14 20.2253 1701.85 20.68H1708.56L1708.58 6.93H1704.13V8.492ZM1725.49 6.82L1721.71 6.952L1720.94 11.55H1719.48L1719.86 5.654H1733.56L1733.83 11.55H1732.44L1731.72 6.952L1727.91 6.82V20.702L1731.03 20.922V22H1722.63V20.922L1725.49 20.702V6.82ZM1737.22 7.018L1735.51 6.754V5.654H1738.43C1738.96 5.654 1739.48 5.632 1740 5.588C1740.79 5.52933 1741.54 5.5 1742.24 5.5C1744.37 5.51467 1745.87 5.91067 1746.75 6.688C1747.63 7.46533 1748.07 8.63867 1748.07 10.208C1748.07 11.3813 1747.8 12.4007 1747.26 13.266C1746.71 14.1313 1745.96 14.7913 1744.99 15.246C1744.04 15.7007 1742.94 15.928 1741.69 15.928C1741.26 15.928 1740.83 15.9207 1740.39 15.906C1739.95 15.8767 1739.68 15.8547 1739.58 15.84V20.68L1742.59 20.922V22H1735.4V20.922L1737.22 20.702V7.018ZM1739.58 14.63C1739.99 14.7033 1740.69 14.74 1741.69 14.74C1742.85 14.74 1743.79 14.388 1744.51 13.684C1745.24 12.98 1745.61 11.8287 1745.61 10.23C1745.61 8.96867 1745.29 8.06667 1744.66 7.524C1744.03 6.96667 1743.05 6.688 1741.71 6.688C1741.24 6.688 1740.74 6.71733 1740.22 6.776C1739.89 6.80533 1739.68 6.82 1739.58 6.82V14.63ZM1756.31 22.242C1754.81 22.242 1753.54 21.8973 1752.5 21.208C1751.47 20.5187 1750.7 19.5507 1750.17 18.304C1749.64 17.0427 1749.38 15.5833 1749.38 13.926C1749.38 12.2393 1749.69 10.758 1750.32 9.482C1750.97 8.206 1751.85 7.22333 1752.96 6.534C1754.08 5.83 1755.33 5.478 1756.72 5.478C1759.01 5.478 1760.76 6.204 1761.96 7.656C1763.18 9.09333 1763.79 11.088 1763.79 13.64C1763.79 15.356 1763.46 16.8667 1762.8 18.172C1762.15 19.4627 1761.26 20.4673 1760.11 21.186C1758.98 21.89 1757.71 22.242 1756.31 22.242ZM1756.59 6.622C1755.17 6.622 1754.05 7.24533 1753.23 8.492C1752.41 9.724 1751.99 11.5353 1751.99 13.926C1751.99 16.126 1752.39 17.8713 1753.18 19.162C1753.99 20.438 1755.11 21.076 1756.55 21.076C1757.96 21.076 1759.07 20.438 1759.89 19.162C1760.73 17.886 1761.15 16.0527 1761.15 13.662C1761.15 11.4473 1760.75 9.724 1759.96 8.492C1759.17 7.24533 1758.04 6.622 1756.59 6.622ZM1767.39 7.018L1765.65 6.754V5.654H1771.63V6.754L1769.74 7.018V12.936H1777.49V7.018L1775.7 6.754V5.654H1781.6V6.754L1779.86 7.018V20.702L1781.6 20.922V22H1775.68V20.922L1777.49 20.702V14.3H1769.74V20.702L1771.66 20.922V22H1765.61V20.922L1767.39 20.702V7.018ZM1791.15 18.612C1791.09 18.7293 1790.92 19.1473 1790.62 19.866C1790.33 20.57 1789.91 21.142 1789.37 21.582C1788.83 22.022 1788.2 22.242 1787.48 22.242C1787.1 22.242 1786.71 22.2053 1786.33 22.132C1785.97 22.0733 1785.67 21.9927 1785.43 21.89V20.328L1786.99 20.35C1787.67 20.35 1788.17 20.218 1788.49 19.954C1788.81 19.6753 1789.09 19.184 1789.32 18.48L1783.78 7.018L1782.59 6.754V5.654H1788.53V6.754L1786.38 7.018L1789.92 14.674L1790.58 16.676L1791.3 14.652L1794.1 7.018L1792.23 6.754V5.654H1796.94V6.754L1795.79 7.018L1791.15 18.612ZM1803.09 8.998C1803.09 11.638 1802.94 13.97 1802.63 15.994C1802.34 18.0033 1801.89 19.5287 1801.29 20.57C1800.98 21.098 1800.63 21.4867 1800.23 21.736C1799.84 21.9853 1799.37 22.11 1798.83 22.11C1798.12 22.11 1797.6 22.0733 1797.26 22L1797.11 20.218C1797.45 20.262 1798 20.284 1798.76 20.284C1799.04 20.284 1799.28 20.2253 1799.49 20.108C1799.69 19.976 1799.88 19.756 1800.06 19.448C1801.17 17.7173 1801.73 14.1533 1801.73 8.756V7.018L1799.2 6.754V5.654H1811.92V6.754L1809.87 7.018V20.702L1812.05 20.922V22H1805.27V20.922L1807.54 20.68L1807.56 7.018H1803.09V8.998ZM1821.1 22.242C1819.48 22.242 1818.11 21.8973 1816.96 21.208C1815.83 20.504 1814.97 19.5213 1814.39 18.26C1813.8 16.9987 1813.51 15.5173 1813.51 13.816C1813.51 12.1733 1813.85 10.7213 1814.54 9.46C1815.23 8.19867 1816.18 7.22333 1817.38 6.534C1818.58 5.83 1819.93 5.478 1821.43 5.478C1822.56 5.478 1823.91 5.654 1825.5 6.006L1826.22 6.138L1826 10.098H1824.53L1823.98 7.304C1823.77 7.128 1823.41 6.98133 1822.9 6.864C1822.4 6.732 1821.79 6.666 1821.05 6.666C1820.11 6.666 1819.28 6.93733 1818.55 7.48C1817.81 8.008 1817.23 8.79267 1816.81 9.834C1816.4 10.8753 1816.19 12.122 1816.19 13.574C1816.19 14.9527 1816.37 16.2067 1816.74 17.336C1817.11 18.4653 1817.67 19.3673 1818.41 20.042C1819.16 20.702 1820.09 21.032 1821.19 21.032C1821.96 21.032 1822.56 20.966 1822.97 20.834C1823.39 20.702 1823.75 20.5113 1824.05 20.262L1824.97 18.106L1826.36 18.282L1825.83 21.406C1825.52 21.4207 1825.06 21.5233 1824.46 21.714C1823.94 21.8753 1823.42 22 1822.92 22.088C1822.44 22.1907 1821.83 22.242 1821.1 22.242ZM1835.32 14.85H1834.24C1833.89 15.0993 1833.53 15.5613 1833.16 16.236C1832.81 16.9107 1832.4 17.7907 1831.95 18.876C1831.5 19.9173 1831.12 20.702 1830.83 21.23C1830.55 21.7433 1830.29 22 1830.06 22H1827.07V20.922L1827.92 20.68C1828.14 20.636 1828.37 20.4307 1828.61 20.064C1828.86 19.6827 1829.21 19.0667 1829.68 18.216C1830.17 17.248 1830.62 16.456 1831.03 15.84C1831.44 15.224 1831.85 14.7987 1832.28 14.564C1831.28 14.2853 1830.5 13.7573 1829.93 12.98C1829.37 12.188 1829.09 11.242 1829.09 10.142C1829.09 8.382 1829.61 7.16467 1830.65 6.49C1831.71 5.81533 1833.21 5.478 1835.16 5.478C1835.59 5.478 1836.14 5.50733 1836.81 5.566C1837.52 5.62467 1838.05 5.654 1838.42 5.654H1841.61V6.754L1839.76 7.018V20.702L1841.78 20.922V22H1835.29V20.922L1837.41 20.702V14.85H1835.32ZM1836.83 6.776C1836.17 6.70267 1835.59 6.666 1835.07 6.666C1833.93 6.666 1833.05 6.908 1832.43 7.392C1831.83 7.876 1831.53 8.74133 1831.53 9.988C1831.53 11.176 1831.83 12.0853 1832.43 12.716C1833.05 13.3467 1833.93 13.662 1835.07 13.662C1836.25 13.662 1837.02 13.64 1837.41 13.596V6.842L1836.83 6.776ZM1846.43 18.7C1846.93 18.7 1847.34 18.942 1847.66 19.426C1847.98 19.8953 1848.14 20.5407 1848.14 21.362C1848.14 22.198 1848.01 23.0047 1847.75 23.782C1847.48 24.5593 1847.15 25.2193 1846.76 25.762C1846.36 26.3193 1845.97 26.708 1845.59 26.928H1845.57L1844.82 26.4V26.158C1845.12 25.9233 1845.41 25.41 1845.7 24.618C1846.01 23.8407 1846.16 23.1 1846.16 22.396C1846.16 22.176 1846.12 22 1846.03 21.868C1845.96 21.7213 1845.83 21.5527 1845.66 21.362C1845.45 21.142 1845.3 20.9367 1845.2 20.746C1845.09 20.5553 1845.04 20.2987 1845.04 19.976C1845.04 19.5947 1845.16 19.2867 1845.39 19.052C1845.64 18.8173 1845.95 18.7 1846.32 18.7H1846.43ZM1867.44 5.654L1867.6 11.44H1866.12L1865.49 6.974L1860.65 6.798V20.68L1864.47 20.922V22H1855.85V20.922L1858.27 20.68V7.04L1855.92 6.732V5.654H1867.44ZM1875.59 22.242C1874.09 22.242 1872.82 21.8973 1871.78 21.208C1870.76 20.5187 1869.98 19.5507 1869.45 18.304C1868.92 17.0427 1868.66 15.5833 1868.66 13.926C1868.66 12.2393 1868.97 10.758 1869.6 9.482C1870.25 8.206 1871.13 7.22333 1872.24 6.534C1873.36 5.83 1874.61 5.478 1876.01 5.478C1878.29 5.478 1880.04 6.204 1881.24 7.656C1882.46 9.09333 1883.07 11.088 1883.07 13.64C1883.07 15.356 1882.74 16.8667 1882.08 18.172C1881.43 19.4627 1880.54 20.4673 1879.39 21.186C1878.26 21.89 1877 22.242 1875.59 22.242ZM1875.87 6.622C1874.45 6.622 1873.33 7.24533 1872.51 8.492C1871.69 9.724 1871.28 11.5353 1871.28 13.926C1871.28 16.126 1871.67 17.8713 1872.46 19.162C1873.27 20.438 1874.39 21.076 1875.83 21.076C1877.24 21.076 1878.35 20.438 1879.17 19.162C1880.01 17.886 1880.43 16.0527 1880.43 13.662C1880.43 11.4473 1880.03 9.724 1879.24 8.492C1878.45 7.24533 1877.33 6.622 1875.87 6.622ZM1892.1 22.242C1890.49 22.242 1889.11 21.8973 1887.97 21.208C1886.84 20.504 1885.98 19.5213 1885.39 18.26C1884.81 16.9987 1884.51 15.5173 1884.51 13.816C1884.51 12.1733 1884.86 10.7213 1885.55 9.46C1886.24 8.19867 1887.18 7.22333 1888.39 6.534C1889.59 5.83 1890.94 5.478 1892.43 5.478C1893.56 5.478 1894.92 5.654 1896.5 6.006L1897.23 6.138L1897.01 10.098H1895.54L1894.99 7.304C1894.78 7.128 1894.42 6.98133 1893.91 6.864C1893.41 6.732 1892.79 6.666 1892.06 6.666C1891.12 6.666 1890.28 6.93733 1889.55 7.48C1888.82 8.008 1888.24 8.79267 1887.81 9.834C1887.4 10.8753 1887.2 12.122 1887.2 13.574C1887.2 14.9527 1887.38 16.2067 1887.75 17.336C1888.11 18.4653 1888.67 19.3673 1889.42 20.042C1890.17 20.702 1891.09 21.032 1892.19 21.032C1892.97 21.032 1893.56 20.966 1893.97 20.834C1894.4 20.702 1894.76 20.5113 1895.05 20.262L1895.98 18.106L1897.36 18.282L1896.83 21.406C1896.53 21.4207 1896.07 21.5233 1895.47 21.714C1894.94 21.8753 1894.43 22 1893.93 22.088C1893.45 22.1907 1892.84 22.242 1892.1 22.242ZM1914.64 5.654V6.754L1912.77 7.04V20.68L1914.81 20.922V22H1908.61V20.922L1910.44 20.68V6.952H1903.4V20.702L1905.44 20.922V22H1899.28V20.922L1901.06 20.702V7.018L1899.19 6.754V5.654H1914.64ZM1923.35 22.242C1921.85 22.242 1920.58 21.8973 1919.54 21.208C1918.52 20.5187 1917.74 19.5507 1917.21 18.304C1916.68 17.0427 1916.42 15.5833 1916.42 13.926C1916.42 12.2393 1916.73 10.758 1917.36 9.482C1918.01 8.206 1918.89 7.22333 1920 6.534C1921.12 5.83 1922.37 5.478 1923.77 5.478C1926.05 5.478 1927.8 6.204 1929 7.656C1930.22 9.09333 1930.83 11.088 1930.83 13.64C1930.83 15.356 1930.5 16.8667 1929.84 18.172C1929.19 19.4627 1928.3 20.4673 1927.15 21.186C1926.02 21.89 1924.76 22.242 1923.35 22.242ZM1923.63 6.622C1922.21 6.622 1921.09 7.24533 1920.27 8.492C1919.45 9.724 1919.04 11.5353 1919.04 13.926C1919.04 16.126 1919.43 17.8713 1920.22 19.162C1921.03 20.438 1922.15 21.076 1923.59 21.076C1925 21.076 1926.11 20.438 1926.93 19.162C1927.77 17.886 1928.19 16.0527 1928.19 13.662C1928.19 11.4473 1927.79 9.724 1927 8.492C1926.21 7.24533 1925.09 6.622 1923.63 6.622ZM1946.68 20.68C1946.68 20.8707 1946.6 21.8093 1946.44 23.496C1946.28 25.1827 1946.19 26.048 1946.18 26.092H1944.77C1944.74 25.5493 1944.67 24.7573 1944.57 23.716C1944.48 22.6747 1944.42 22.1027 1944.37 22H1934.32C1934.26 22.0587 1934.11 22.616 1933.88 23.672C1933.66 24.728 1933.49 25.542 1933.37 26.114H1931.94C1931.96 25.5273 1931.99 24.6473 1932.03 23.474C1932.09 22.3153 1932.14 21.384 1932.18 20.68H1933.79C1934.14 20.24 1934.52 19.5213 1934.93 18.524C1935.36 17.512 1935.74 16.148 1936.08 14.432C1936.42 12.7013 1936.58 10.6773 1936.58 8.36V7.018L1934.32 6.754V5.654H1946.77V6.754L1944.7 7.018V20.68H1946.68ZM1937.95 8.492C1937.96 10.5747 1937.84 12.4667 1937.57 14.168C1937.31 15.8547 1937 17.248 1936.63 18.348C1936.28 19.448 1935.95 20.2253 1935.66 20.68H1942.37L1942.39 6.93H1937.95V8.492ZM1954.08 5.522H1956.5L1961.85 20.702L1963.21 20.922V22H1957.41V20.922L1959.23 20.702L1958.2 17.446H1951.77L1950.74 20.702L1952.63 20.922V22H1947.42V20.922L1948.78 20.702L1954.08 5.522ZM1955.47 9.042L1954.92 7.106L1954.39 9.086L1952.17 16.148H1957.78L1955.47 9.042ZM1984.63 5.654V6.754L1982.76 7.04V20.68L1984.81 20.922V22H1978.61V20.922L1980.43 20.68V6.952H1973.39V20.702L1975.44 20.922V22H1969.28V20.922L1971.06 20.702V7.018L1969.19 6.754V5.654H1984.63ZM1988.55 7.018L1986.83 6.754V5.654H1989.76C1990.29 5.654 1990.81 5.632 1991.32 5.588C1992.11 5.52933 1992.86 5.5 1993.56 5.5C1995.69 5.51467 1997.19 5.91067 1998.07 6.688C1998.95 7.46533 1999.39 8.63867 1999.39 10.208C1999.39 11.3813 1999.12 12.4007 1998.58 13.266C1998.04 14.1313 1997.28 14.7913 1996.31 15.246C1995.36 15.7007 1994.26 15.928 1993.01 15.928C1992.59 15.928 1992.16 15.9207 1991.72 15.906C1991.28 15.8767 1991 15.8547 1990.9 15.84V20.68L1993.92 20.922V22H1986.72V20.922L1988.55 20.702V7.018ZM1990.9 14.63C1991.31 14.7033 1992.02 14.74 1993.01 14.74C1994.17 14.74 1995.11 14.388 1995.83 13.684C1996.56 12.98 1996.93 11.8287 1996.93 10.23C1996.93 8.96867 1996.61 8.06667 1995.98 7.524C1995.35 6.96667 1994.37 6.688 1993.04 6.688C1992.57 6.688 1992.07 6.71733 1991.54 6.776C1991.22 6.80533 1991 6.82 1990.9 6.82V14.63ZM2007.32 5.654V6.754L2005.17 7.018V18.062L2006.97 15.356L2013.31 7.612V7.018L2011.35 6.754V5.654H2017.4V6.754L2015.64 7.018V20.702L2017.51 20.922V22H2011.37V20.922L2013.31 20.702V9.504L2011.68 12.056L2005.17 19.91V20.702L2007.24 20.922V22H2001.03V20.922L2002.86 20.702V7.018L2001.1 6.754V5.654H2007.32ZM2026.83 22.242C2025.22 22.242 2023.84 21.8973 2022.7 21.208C2021.57 20.504 2020.71 19.5213 2020.12 18.26C2019.53 16.9987 2019.24 15.5173 2019.24 13.816C2019.24 12.1733 2019.59 10.7213 2020.28 9.46C2020.96 8.19867 2021.91 7.22333 2023.11 6.534C2024.32 5.83 2025.67 5.478 2027.16 5.478C2028.29 5.478 2029.65 5.654 2031.23 6.006L2031.96 6.138L2031.74 10.098H2030.26L2029.71 7.304C2029.51 7.128 2029.15 6.98133 2028.64 6.864C2028.14 6.732 2027.52 6.666 2026.79 6.666C2025.85 6.666 2025.01 6.93733 2024.28 7.48C2023.55 8.008 2022.97 8.79267 2022.54 9.834C2022.13 10.8753 2021.93 12.122 2021.93 13.574C2021.93 14.9527 2022.11 16.2067 2022.48 17.336C2022.84 18.4653 2023.4 19.3673 2024.15 20.042C2024.9 20.702 2025.82 21.032 2026.92 21.032C2027.7 21.032 2028.29 20.966 2028.7 20.834C2029.13 20.702 2029.49 20.5113 2029.78 20.262L2030.7 18.106L2032.09 18.282L2031.56 21.406C2031.25 21.4207 2030.8 21.5233 2030.2 21.714C2029.67 21.8753 2029.16 22 2028.66 22.088C2028.17 22.1907 2027.56 22.242 2026.83 22.242ZM2041.05 14.85H2039.97C2039.62 15.0993 2039.26 15.5613 2038.89 16.236C2038.54 16.9107 2038.14 17.7907 2037.68 18.876C2037.23 19.9173 2036.86 20.702 2036.56 21.23C2036.28 21.7433 2036.03 22 2035.79 22H2032.8V20.922L2033.66 20.68C2033.88 20.636 2034.11 20.4307 2034.34 20.064C2034.59 19.6827 2034.95 19.0667 2035.42 18.216C2035.9 17.248 2036.35 16.456 2036.76 15.84C2037.17 15.224 2037.59 14.7987 2038.01 14.564C2037.02 14.2853 2036.23 13.7573 2035.66 12.98C2035.1 12.188 2034.82 11.242 2034.82 10.142C2034.82 8.382 2035.35 7.16467 2036.39 6.49C2037.44 5.81533 2038.95 5.478 2040.9 5.478C2041.32 5.478 2041.87 5.50733 2042.55 5.566C2043.25 5.62467 2043.79 5.654 2044.15 5.654H2047.34V6.754L2045.49 7.018V20.702L2047.52 20.922V22H2041.03V20.922L2043.14 20.702V14.85H2041.05ZM2042.57 6.776C2041.91 6.70267 2041.32 6.666 2040.81 6.666C2039.66 6.666 2038.78 6.908 2038.17 7.392C2037.57 7.876 2037.27 8.74133 2037.27 9.988C2037.27 11.176 2037.57 12.0853 2038.17 12.716C2038.78 13.3467 2039.66 13.662 2040.81 13.662C2041.98 13.662 2042.76 13.64 2043.14 13.596V6.842L2042.57 6.776ZM2064.37 13.464C2064.96 13.684 2065.55 14.1753 2066.13 14.938C2066.72 15.7007 2067.41 16.72 2068.2 17.996C2068.76 18.876 2069.19 19.5287 2069.5 19.954C2069.82 20.3793 2070.09 20.6213 2070.31 20.68L2071.17 20.922V22H2068.42C2068.08 22 2067.71 21.714 2067.3 21.142C2066.9 20.57 2066.36 19.6827 2065.67 18.48C2064.91 17.1453 2064.28 16.1333 2063.78 15.444C2063.28 14.7547 2062.8 14.41 2062.35 14.41H2060.96V20.68L2062.9 20.944V22H2056.87V20.922L2058.72 20.702V14.41H2057.33C2056.88 14.41 2056.39 14.762 2055.88 15.466C2055.37 16.1553 2054.74 17.16 2054.01 18.48C2053.32 19.6827 2052.77 20.57 2052.36 21.142C2051.95 21.714 2051.58 22 2051.24 22H2048.53V20.922L2049.35 20.68C2049.57 20.6213 2049.83 20.3793 2050.14 19.954C2050.46 19.5287 2050.9 18.876 2051.46 17.996C2052.25 16.7053 2052.94 15.6787 2053.53 14.916C2054.13 14.1533 2054.72 13.662 2055.31 13.442L2050.58 7.018L2048.84 6.754V5.654H2054.16V6.754L2052.45 7.018L2056.8 13.354H2058.72V7.018L2056.89 6.754V5.654H2062.85V6.754L2060.96 7.018V13.354H2062.88L2067.21 7.04L2065.49 6.754V5.654H2070.86V6.754L2069.1 7.018L2064.37 13.464ZM2074.18 7.018L2072.45 6.754V5.654H2078.43V6.754L2076.54 7.018V12.936H2084.28V7.018L2082.5 6.754V5.654H2088.4V6.754L2086.66 7.018V20.702L2088.4 20.922V22H2082.48V20.922L2084.28 20.702V14.3H2076.54V20.702L2078.45 20.922V22H2072.4V20.922L2074.18 20.702V7.018ZM2097.64 12.078C2099.43 12.078 2100.8 12.5033 2101.75 13.354C2102.71 14.19 2103.18 15.3633 2103.18 16.874C2103.18 18.5607 2102.65 19.866 2101.58 20.79C2100.51 21.714 2099.09 22.176 2097.33 22.176C2097.1 22.176 2096.85 22.1687 2096.58 22.154C2096.33 22.1393 2096.08 22.1247 2095.81 22.11C2094.96 22.0367 2094.21 22 2093.55 22H2090.56V20.922L2092.4 20.702V6.996L2090.62 6.71V5.654H2096.89V6.71L2094.74 6.996V12.1L2097.64 12.078ZM2111.46 5.654V6.754L2109.41 7.018V20.702L2111.46 20.944V22H2104.99V20.922L2107.03 20.702V7.018L2104.99 6.754V5.654H2111.46ZM2094.74 20.79C2095.12 20.8633 2095.45 20.9147 2095.73 20.944C2096.02 20.9733 2096.41 20.988 2096.91 20.988C2098.15 20.988 2099.08 20.6433 2099.73 19.954C2100.39 19.2647 2100.72 18.282 2100.72 17.006C2100.72 15.7887 2100.4 14.8793 2099.75 14.278C2099.11 13.662 2098.18 13.354 2096.98 13.354L2094.74 13.376V20.79ZM2115.48 7.018L2113.67 6.754V5.654H2124.87L2125.18 9.064H2123.92L2123.29 6.93L2117.83 6.798V13.002L2121.5 12.936L2121.81 11.11H2123.02V16.17H2121.81L2121.5 14.278L2117.83 14.212V20.768L2124.03 20.548L2125.2 17.776L2126.5 18.172L2125.86 22H2113.65V20.922L2115.48 20.702V7.018ZM2133.82 6.182C2134.05 6.16733 2134.52 6.07933 2135.23 5.918C2135.89 5.77133 2136.45 5.66133 2136.92 5.588C2137.39 5.51467 2137.84 5.478 2138.28 5.478C2140.12 5.478 2141.52 5.786 2142.51 6.402C2143.49 7.018 2143.98 7.94933 2143.98 9.196C2143.98 10.3693 2143.61 11.308 2142.86 12.012C2142.13 12.716 2141.24 13.1707 2140.2 13.376C2141.56 13.4053 2142.61 13.7793 2143.34 14.498C2144.09 15.202 2144.47 16.104 2144.47 17.204C2144.47 18.788 2143.97 20.0053 2142.99 20.856C2142.02 21.7067 2140.48 22.132 2138.35 22.132C2137.47 22.132 2136.69 22.0587 2136.02 21.912C2135.34 21.7653 2134.81 21.6333 2134.41 21.516C2134.03 21.384 2133.8 21.3033 2133.71 21.274L2134.1 17.468H2135.2L2135.82 20.328C2136.52 20.7093 2137.51 20.9 2138.77 20.9C2139.75 20.9 2140.49 20.6067 2140.99 20.02C2141.5 19.4333 2141.76 18.5533 2141.76 17.38C2141.76 16.4707 2141.49 15.708 2140.95 15.092C2140.4 14.476 2139.47 14.168 2138.15 14.168H2136.61V12.936H2137.89C2138.5 12.936 2139.08 12.8113 2139.63 12.562C2140.18 12.3127 2140.63 11.9313 2140.97 11.418C2141.3 10.89 2141.47 10.252 2141.47 9.504C2141.47 8.52133 2141.19 7.80267 2140.64 7.348C2140.09 6.89333 2139.34 6.666 2138.37 6.666C2137.73 6.666 2137.18 6.74667 2136.72 6.908C2136.28 7.06933 2135.99 7.27467 2135.84 7.524L2135.42 9.57H2134.04L2133.82 6.182ZM2151.95 5.522H2154.37L2159.72 20.702L2161.08 20.922V22H2155.28V20.922L2157.1 20.702L2156.07 17.446H2149.64L2148.61 20.702L2150.5 20.922V22H2145.29V20.922L2146.65 20.702L2151.95 5.522ZM2153.34 9.042L2152.79 7.106L2152.26 9.086L2150.04 16.148H2155.65L2153.34 9.042ZM2169.12 22.242C2167.51 22.242 2166.13 21.8973 2164.99 21.208C2163.86 20.504 2163 19.5213 2162.41 18.26C2161.83 16.9987 2161.53 15.5173 2161.53 13.816C2161.53 12.1733 2161.88 10.7213 2162.57 9.46C2163.26 8.19867 2164.2 7.22333 2165.4 6.534C2166.61 5.83 2167.96 5.478 2169.45 5.478C2170.58 5.478 2171.94 5.654 2173.52 6.006L2174.25 6.138L2174.03 10.098H2172.55L2172 7.304C2171.8 7.128 2171.44 6.98133 2170.93 6.864C2170.43 6.732 2169.81 6.666 2169.08 6.666C2168.14 6.666 2167.3 6.93733 2166.57 7.48C2165.84 8.008 2165.26 8.79267 2164.83 9.834C2164.42 10.8753 2164.22 12.122 2164.22 13.574C2164.22 14.9527 2164.4 16.2067 2164.77 17.336C2165.13 18.4653 2165.69 19.3673 2166.44 20.042C2167.19 20.702 2168.11 21.032 2169.21 21.032C2169.99 21.032 2170.58 20.966 2170.99 20.834C2171.42 20.702 2171.78 20.5113 2172.07 20.262L2172.99 18.106L2174.38 18.282L2173.85 21.406C2173.54 21.4207 2173.09 21.5233 2172.49 21.714C2171.96 21.8753 2171.45 22 2170.95 22.088C2170.46 22.1907 2169.86 22.242 2169.12 22.242ZM2178.02 7.018L2176.21 6.754V5.654H2187.41L2187.72 9.064H2186.47L2185.83 6.93L2180.37 6.798V13.002L2184.05 12.936L2184.35 11.11H2185.56V16.17H2184.35L2184.05 14.278L2180.37 14.212V20.768L2186.58 20.548L2187.74 17.776L2189.04 18.172L2188.4 22H2176.19V20.922L2178.02 20.702V7.018ZM2204.65 20.68C2204.65 20.8707 2204.57 21.8093 2204.4 23.496C2204.24 25.1827 2204.15 26.048 2204.14 26.092H2202.73C2202.7 25.5493 2202.64 24.7573 2202.53 23.716C2202.45 22.6747 2202.38 22.1027 2202.34 22H2192.28C2192.22 22.0587 2192.08 22.616 2191.84 23.672C2191.62 24.728 2191.45 25.542 2191.34 26.114H2189.91C2189.92 25.5273 2189.95 24.6473 2189.99 23.474C2190.05 22.3153 2190.1 21.384 2190.15 20.68H2191.75C2192.11 20.24 2192.49 19.5213 2192.9 18.524C2193.32 17.512 2193.7 16.148 2194.04 14.432C2194.38 12.7013 2194.55 10.6773 2194.55 8.36V7.018L2192.28 6.754V5.654H2204.73V6.754L2202.67 7.018V20.68H2204.65ZM2195.91 8.492C2195.93 10.5747 2195.8 12.4667 2195.54 14.168C2195.27 15.8547 2194.96 17.248 2194.59 18.348C2194.24 19.448 2193.92 20.2253 2193.62 20.68H2200.33L2200.36 6.93H2195.91V8.492ZM2212.05 5.522H2214.47L2219.81 20.702L2221.18 20.922V22H2215.37V20.922L2217.19 20.702L2216.16 17.446H2209.74L2208.7 20.702L2210.59 20.922V22H2205.38V20.922L2206.74 20.702L2212.05 5.522ZM2213.43 9.042L2212.88 7.106L2212.35 9.086L2210.13 16.148H2215.74L2213.43 9.042ZM2227.28 6.82L2223.49 6.952L2222.72 11.55H2221.27L2221.65 5.654H2235.35L2235.62 11.55H2234.23L2233.5 6.952L2229.7 6.82V20.702L2232.82 20.922V22H2224.42V20.922L2227.28 20.702V6.82ZM2238.97 7.018L2237.16 6.754V5.654H2248.36L2248.67 9.064H2247.42L2246.78 6.93L2241.32 6.798V13.002L2245 12.936L2245.3 11.11H2246.51V16.17H2245.3L2245 14.278L2241.32 14.212V20.768L2247.53 20.548L2248.69 17.776L2249.99 18.172L2249.35 22H2237.14V20.922L2238.97 20.702V7.018ZM2256.97 8.998C2256.97 11.638 2256.82 13.97 2256.51 15.994C2256.22 18.0033 2255.77 19.5287 2255.17 20.57C2254.86 21.098 2254.51 21.4867 2254.11 21.736C2253.72 21.9853 2253.25 22.11 2252.7 22.11C2252 22.11 2251.48 22.0733 2251.14 22L2250.99 20.218C2251.33 20.262 2251.88 20.284 2252.64 20.284C2252.92 20.284 2253.16 20.2253 2253.36 20.108C2253.57 19.976 2253.76 19.756 2253.94 19.448C2255.05 17.7173 2255.61 14.1533 2255.61 8.756V7.018L2253.08 6.754V5.654H2265.79V6.754L2263.75 7.018V20.702L2265.93 20.922V22H2259.15V20.922L2261.42 20.68L2261.44 7.018H2256.97V8.998ZM2274.03 5.654V6.754L2271.87 7.018V18.062L2273.68 15.356L2280.01 7.612V7.018L2278.06 6.754V5.654H2284.11V6.754L2282.35 7.018V20.702L2284.22 20.922V22H2278.08V20.922L2280.01 20.702V9.504L2278.39 12.056L2271.87 19.91V20.702L2273.94 20.922V22H2267.74V20.922L2269.56 20.702V7.018L2267.8 6.754V5.654H2274.03ZM2289.73 16.764H2288.32L2287.66 2.574H2290.35L2289.73 16.764ZM2287.58 20.834C2287.58 20.394 2287.75 20.02 2288.08 19.712C2288.42 19.404 2288.8 19.25 2289.23 19.25C2289.7 19.25 2290.06 19.382 2290.3 19.646C2290.55 19.91 2290.68 20.24 2290.68 20.636C2290.68 21.1053 2290.51 21.4867 2290.17 21.78C2289.85 22.0733 2289.45 22.22 2288.98 22.22C2288.6 22.22 2288.27 22.0953 2287.99 21.846C2287.72 21.582 2287.58 21.2447 2287.58 20.834Z" fill="white"/>
<circle cx="2308" cy="14" r="3" fill="white"/>
</svg>
